<svg width="42" height="43" viewBox="0 0 42 43" fill="none" xmlns="http://www.w3.org/2000/svg">
<g clip-path="url(#clip0_386_4404)">
<path d="M32.5623 15.4637C28.9962 12.6712 23.7174 12.1469 16.8585 13.8982C17.9085 11.1498 19.8175 4.90415 16.8612 1.94815C13.4844 -1.42907 10.0346 0.498004 9.18736 1.06262C8.57549 1.11521 6.92551 1.39173 5.81637 2.84418C4.65817 4.36012 4.47844 6.62221 5.28153 9.56738C5.36495 9.87327 5.64205 10.0795 5.95098 10.0795C5.98183 10.0795 6.01275 10.0774 6.04393 10.0734C6.38887 10.0273 6.64628 9.73292 6.64628 9.38494C6.64628 9.36255 6.67959 7.17002 9.56019 6.59325C9.58817 6.58768 9.61589 6.58054 9.64329 6.57135C10.3328 6.34413 12.4945 5.87409 13.3606 6.67857C13.8381 7.12219 13.9229 7.97548 13.6126 9.2167C12.8377 12.3165 12.3151 12.8795 11.7616 13.4757C11.3051 13.9681 10.7875 14.5257 10.1686 16.0729C9.4415 17.8907 9.66503 19.8787 10.7811 21.5276C11.8015 23.0348 13.4107 23.9708 14.9803 23.9708C15.5026 23.9715 16.0693 24.0597 16.3284 24.1628C16.3594 25.9272 16.8042 26.9861 17.6724 27.3244V31.5973L14.1067 32.3192C13.9724 32.3463 13.8707 32.4121 13.7736 32.5091L13.0899 33.2036C12.8186 33.4749 12.8241 33.9145 13.0953 34.1858C13.231 34.3215 13.4114 34.3892 13.5892 34.3892C13.7668 34.3892 13.9459 34.3214 14.0816 34.1858L14.5849 33.6398L17.6724 33.0137V40.6139H17.0647C16.6811 40.6139 16.3701 40.9246 16.3701 41.3085C16.3701 41.6924 16.6811 42.003 17.0647 42.003H18.4538C18.8374 42.003 19.0615 41.7188 19.0615 41.3349V32.736L24.7978 31.5974C25 31.5568 25.1956 31.4285 25.294 31.2474C25.3923 31.0656 25.4154 30.8499 25.3391 30.6587L24.2578 27.942C25.1444 27.5138 25.267 26.4828 25.33 25.9222C25.3503 25.7425 25.3805 25.4847 25.4226 25.3599C26.5295 25.3748 30.6647 26.3369 32.176 26.7148C32.2313 26.7291 32.2886 26.7226 32.3452 26.7226H36.5126C36.8854 26.7226 37.1916 26.4415 37.2065 26.069C37.2177 25.7923 37.4215 19.2668 32.5623 15.4637ZM8.64309 5.36689C7.60121 5.70658 6.69714 6.30008 6.15918 6.95255C6.04524 5.56475 6.25959 4.47545 6.84562 3.69952C7.37915 2.99356 8.12219 2.68397 8.64309 2.54747V5.36689ZM19.0616 31.3194V27.2828C19.7562 26.9768 19.9374 26.2972 20.1153 25.8062C20.4155 24.978 20.6074 24.6653 21.2104 24.6653C21.4774 24.6653 21.5686 24.6653 21.5686 25.7072C21.5686 26.4132 21.5751 27.8012 22.8192 28.0856L23.7039 30.3989L19.0616 31.3194ZM32.4303 25.3335C31.5604 25.1598 26.7791 23.9575 25.3994 23.9575C24.1541 23.9575 24.0178 25.1646 23.9523 25.7472C23.8514 26.6465 23.7637 26.7226 23.3301 26.7226C23.3297 26.7226 23.3294 26.7226 23.329 26.7226C23.3245 26.7226 23.3205 26.7226 23.3158 26.7226C23.0489 26.7226 22.9685 26.7358 22.9685 25.694C22.9685 24.9051 22.9685 23.2696 21.2321 23.2696C19.5978 23.2696 19.1314 24.5602 18.8527 25.3294C18.6499 25.8891 18.5603 26.0528 18.4539 26.0528C17.9994 26.0528 17.7593 25.3333 17.7593 23.9699C17.7593 22.7612 16.0185 22.5813 14.9811 22.5813C13.8656 22.5813 12.6969 21.8788 11.9315 20.7487C11.0779 19.4878 10.9052 17.9713 11.4587 16.5881C11.9813 15.281 12.3694 14.8634 12.78 14.4205C13.4583 13.69 14.0986 12.9995 14.9604 9.55311C15.403 7.78279 15.1388 6.47234 14.2601 5.65834C13.1117 4.59407 11.2478 4.77388 10.0323 5.01194V2.1082C10.9005 1.60895 13.3358 0.430082 15.8357 2.93031C18.4 5.49494 16.1247 12.2601 15.0231 14.6504C14.9095 14.8974 14.9611 15.1883 15.1385 15.3946C15.3158 15.6 15.6045 15.6863 15.8639 15.6082C22.9351 13.5551 28.2636 13.8579 31.6941 16.5372C35.147 19.2327 35.7164 23.7708 35.8045 25.3335H32.4303V25.3335Z" fill="white"/>
<path d="M12.696 2.64456C12.6266 2.57541 12.557 2.52652 12.4668 2.49199C12.2168 2.38756 11.9041 2.4499 11.7098 2.64456C11.5846 2.76942 11.5083 2.95046 11.5083 3.13093C11.5083 3.31812 11.5775 3.49178 11.7098 3.62402C11.7789 3.68644 11.8556 3.74206 11.9387 3.77659C12.0221 3.81121 12.1124 3.8254 12.2029 3.8254C12.3905 3.8254 12.5641 3.75551 12.696 3.62393C12.8279 3.49162 12.8975 3.31804 12.8975 3.13085C12.8975 2.95054 12.8209 2.76942 12.696 2.64456Z" fill="white"/>
<path d="M28.118 19.5211C27.962 19.1698 27.5527 19.0131 27.2013 19.1684C21.6536 21.6367 19.1769 16.9151 19.0744 16.7123C18.9022 16.3711 18.4867 16.2334 18.1434 16.4037C17.8002 16.5753 17.6612 16.9924 17.8328 17.3356C17.8576 17.3852 19.8653 21.2785 24.1473 21.2785C25.2116 21.2785 26.4162 21.0378 27.7656 20.4381C28.116 20.2821 28.274 19.8718 28.118 19.5211Z" fill="white"/>
</g>
<defs>
<clipPath id="clip0_386_4404">
<rect width="42" height="42" fill="white" transform="translate(0 0.00299072)"/>
</clipPath>
</defs>
</svg>
