<svg width="42" height="43" viewBox="0 0 42 43" fill="none" xmlns="http://www.w3.org/2000/svg">
<g clip-path="url(#clip0_386_4417)">
<path d="M39.5391 31.026C39.5391 30.6863 39.2636 30.4108 38.9238 30.4108H38.7856L37.2629 27.9398C36.8872 27.3301 36.1272 27.0685 35.456 27.3177L33.9343 27.8825C33.8842 27.9011 33.8302 27.9048 33.7781 27.8931L32.2571 27.5539C31.9531 27.4862 31.6404 27.5133 31.3527 27.6325L29.5764 28.3683C29.1706 28.5364 28.8591 28.8721 28.7218 29.2893C28.5995 29.6607 28.6277 30.0618 28.795 30.4108H28.1101C27.7703 30.4108 27.4948 30.6863 27.4948 31.026C27.4948 31.3658 27.7703 31.6413 28.1101 31.6413H38.9238C39.2636 31.6413 39.5391 31.3658 39.5391 31.026ZM30.2224 30.4108L29.9164 29.9029C29.8595 29.8085 29.8758 29.719 29.8906 29.674C29.9054 29.629 29.9454 29.5473 30.0473 29.5052L31.8236 28.7694C31.8764 28.7475 31.9337 28.7425 31.9894 28.755L33.5103 29.0942C33.7947 29.1575 34.0894 29.1375 34.3624 29.0361L35.8841 28.4714C36.0074 28.4258 36.1466 28.4737 36.2154 28.5854L37.3402 30.4109H30.2224V30.4108ZM41.3848 35.3327H36.7233C36.3836 35.3327 36.1081 35.6081 36.1081 35.9479C36.1081 36.2877 36.3836 36.5632 36.7233 36.5632H41.3848C41.7245 36.5632 42 36.2877 42 35.9479C42 35.6081 41.7245 35.3327 41.3848 35.3327ZM18.519 35.3327H18.1474L17.9475 33.4821C17.9139 33.1717 17.7727 32.8803 17.5499 32.6616L16.1119 31.25C15.7018 30.8475 15.0801 30.7479 14.5647 31.0022L12.3442 32.098C12.1408 32.1984 11.9644 32.3498 11.8342 32.5357L11.403 33.152C11.367 33.2035 11.2983 33.2196 11.2432 33.1895L10.502 32.785C10.1127 32.5727 9.64376 32.5644 9.2473 32.7629C8.85084 32.9615 8.5767 33.3421 8.51378 33.7809L8.29131 35.3326H7.7052C7.36542 35.3326 7.08996 35.6081 7.08996 35.9478C7.08996 36.2876 7.36542 36.5631 7.7052 36.5631H18.519C18.8588 36.5631 19.1343 36.2876 19.1343 35.9478C19.1343 35.6081 18.8588 35.3327 18.519 35.3327ZM9.53433 35.3327L9.73178 33.9556C9.73932 33.903 9.77222 33.8763 9.79847 33.8632C9.82472 33.85 9.86582 33.8396 9.91257 33.8651L10.6538 34.2697C11.2599 34.6005 12.0154 34.4233 12.4112 33.8576L12.8424 33.2413C12.8543 33.2244 12.8703 33.2106 12.8888 33.2015L15.1093 32.1057C15.1561 32.0825 15.2127 32.0915 15.2499 32.1282L16.6879 33.5398C16.7082 33.5597 16.721 33.5862 16.724 33.6144L16.9097 35.3328H9.53433V35.3327ZM26.527 27.0249H24.2064C23.8667 27.0249 23.5912 27.3003 23.5912 27.6401C23.5912 27.9799 23.8667 28.2554 24.2064 28.2554H26.527C26.8668 28.2554 27.1423 27.9799 27.1423 27.6401C27.1423 27.3003 26.8669 27.0249 26.527 27.0249ZM30.6534 23.6301C30.9931 23.6301 31.2686 23.3546 31.2686 23.0149C31.2686 22.6751 30.9931 22.3996 30.6534 22.3996H26.0087L25.9899 21.4108C25.9886 21.3452 26.0192 21.2824 26.0717 21.243L27.6208 20.0793C28.0571 19.7516 28.2718 19.1937 28.1678 18.658L27.4877 15.1536L27.8138 13.0396L30.7894 16.1394L33.4026 19.7775C33.602 20.0551 33.9074 20.2073 34.2278 20.2073C34.3552 20.2073 34.485 20.1832 34.6114 20.1334C35.0557 19.9584 35.3134 19.5226 35.2525 19.0488L35.0593 17.5442L38.9534 22.3996H33.1143C32.7745 22.3996 32.4991 22.675 32.4991 23.0148C32.4991 23.3546 32.7745 23.63 33.1143 23.63H41.3848C41.7245 23.63 42 23.3546 42 23.0148C42 22.675 41.7245 22.3996 41.3848 22.3996H40.5307L35.0078 15.5134C34.8856 15.3553 34.5673 15.144 34.2079 15.1297H31.5257L28.3301 11.8008C28.1367 11.6028 27.7099 11.3499 27.2944 11.3594H25.4554C25.3998 11.3594 25.3459 11.3364 25.3075 11.2963L20.0637 5.83383C19.8251 5.58536 19.4909 5.44287 19.1464 5.44287C18.9361 5.45017 18.4916 5.54098 18.2291 5.83383L14.7384 9.47011L11.7233 10.4931C11.2607 10.6501 10.8806 10.9956 10.6806 11.4415L9.12819 14.9026C9.05322 15.0697 8.90014 15.1854 8.71886 15.2119L6.19984 15.5802C5.74555 15.6467 5.34868 15.9099 5.11079 16.3026L1.41766 22.3996H0.615234C0.275461 22.3996 0 22.675 0 23.0148C0 23.3546 0.275461 23.63 0.615234 23.63H30.6534V23.6301ZM33.6667 16.3602L33.9286 18.4008L32.4629 16.3602H33.6667ZM25.4001 12.5871C25.4185 12.5878 26.638 12.5899 26.638 12.5899L26.2705 14.973C26.2495 15.1089 26.2521 15.2463 26.2784 15.381L26.9599 18.8926C26.9747 18.9691 26.9441 19.0487 26.8817 19.0956L25.3326 20.2593C24.9651 20.5354 24.7509 20.9747 24.7596 21.4342L24.7779 22.3997H20.6416L21.173 21.9362C21.4271 21.7146 21.5756 21.3942 21.5805 21.057L21.6106 18.9861L23.6471 17.5892C24.0118 17.3392 24.2068 16.911 24.156 16.4718L23.9815 14.9612L25.4001 12.5871ZM19.2176 6.72937L24.3021 12.0258L22.9254 14.33C22.7867 14.5559 22.7272 14.8254 22.7576 15.0885L22.9309 16.5884L20.8972 17.9832C20.5793 18.2013 20.3862 18.5616 20.3807 18.9469L20.3506 21.0208L18.7697 22.3996H11.2393L11.1743 20.5758L12.9463 19.9135C13.3429 19.7652 13.6044 19.3958 13.6124 18.9724L13.66 16.4493L16.3985 15.0427C16.6818 14.8971 16.8875 14.6384 16.9658 14.3305L19.2176 6.72937ZM6.16325 16.9402C6.21009 16.8629 6.28835 16.8109 6.37785 16.7978L8.89694 16.4295C9.49676 16.3417 10.0028 15.9592 10.2509 15.4061L11.8032 11.9452C11.8637 11.8104 11.9786 11.7059 12.1185 11.6585L15.2759 10.5871C15.3693 10.5555 15.4537 10.5017 15.522 10.4306L17.4249 8.44841L15.7882 13.9727L12.9886 15.4107C12.6523 15.5834 12.439 15.9256 12.4318 16.3036L12.3846 18.8099L10.6048 19.4751C10.1909 19.6298 9.9234 20.0305 9.93915 20.4721L10.008 22.3996H2.85633L6.16325 16.9402ZM9.91569 27.6401C9.91569 27.3003 9.64023 27.0249 9.30046 27.0249H2.058C1.71823 27.0249 1.44277 27.3003 1.44277 27.6401C1.44277 27.9799 1.71823 28.2554 2.058 28.2554H9.30046C9.64031 28.2554 9.91569 27.9799 9.91569 27.6401ZM11.9017 27.0249C11.562 27.0249 11.2865 27.3003 11.2865 27.6401C11.2865 27.9799 11.562 28.2554 11.9017 28.2554H12.9919C13.3316 28.2554 13.6071 27.9799 13.6071 27.6401C13.6071 27.3003 13.3316 27.0249 12.9919 27.0249H11.9017Z" fill="white"/>
</g>
<defs>
<clipPath id="clip0_386_4417">
<rect width="42" height="42" fill="white" transform="translate(0 0.00299072)"/>
</clipPath>
</defs>
</svg>
