<svg width="48" height="25" viewBox="0 0 48 25" fill="none" xmlns="http://www.w3.org/2000/svg">
<path fill-rule="evenodd" clip-rule="evenodd" d="M31.4174 4.30957C29.9492 4.29378 28.3405 4.29395 27.7565 4.35651C27.1744 4.41888 26.5592 4.59073 26.088 4.74779C25.8528 4.82621 25.6541 4.9007 25.5144 4.95556C25.4445 4.98299 25.3894 5.00549 25.3518 5.02111C25.333 5.02892 25.3186 5.03501 25.3089 5.03913C25.3041 5.04119 25.3004 5.04275 25.298 5.0438L25.2953 5.04497L25.2945 5.04532L25.2693 4.98751C25.2441 4.92969 25.2441 4.92969 25.2441 4.92968L25.2452 4.92923L25.2481 4.92796C25.2507 4.92685 25.2545 4.92522 25.2595 4.92309C25.2695 4.91883 25.2842 4.9126 25.3034 4.90464C25.3417 4.88873 25.3976 4.86591 25.4683 4.83815C25.6097 4.78265 25.8104 4.70737 26.0481 4.62813C26.5229 4.46987 27.1479 4.29487 27.7431 4.2311C28.3364 4.16754 29.9544 4.16771 31.4187 4.18345C32.1521 4.19134 32.8486 4.20316 33.3618 4.21302C33.6183 4.21795 33.8291 4.22238 33.9757 4.22559C34.049 4.22719 34.1063 4.22848 34.1453 4.22938C34.1647 4.22982 34.1796 4.23017 34.1897 4.2304L34.2048 4.23076C34.2048 4.23076 34.2049 4.23076 34.2034 4.29381C34.2018 4.35686 34.2018 4.35685 34.2018 4.35685L34.1867 4.3565C34.1767 4.35626 34.1618 4.35592 34.1424 4.35547C34.1035 4.35458 34.0462 4.35329 33.973 4.35168C33.8264 4.34848 33.6158 4.34405 33.3593 4.33912C32.8464 4.32927 32.1503 4.31745 31.4174 4.30957Z" fill="white"/>
<path fill-rule="evenodd" clip-rule="evenodd" d="M34.3946 2.17045L29.1393 2.3176L29.1357 2.19152L34.3911 2.04437L34.3946 2.17045Z" fill="white"/>
<path fill-rule="evenodd" clip-rule="evenodd" d="M25.9793 13.6455C24.8002 13.6505 23.9382 13.6637 23.722 13.6894C23.5063 13.7151 23.3621 13.7583 23.254 13.8093C23.1461 13.8602 23.071 13.9202 22.9929 13.9853C22.9877 13.9897 22.9824 13.9941 22.9771 13.9986C22.9037 14.0599 22.8248 14.1258 22.7159 14.1848C22.5986 14.2484 22.4487 14.3028 22.2329 14.3406C22.1752 14.3507 22.0448 14.3588 21.8571 14.3657C21.6672 14.3728 21.4138 14.3787 21.1064 14.3838C20.4915 14.3938 19.6594 14.4002 18.6848 14.4036C16.7355 14.4105 14.2154 14.4059 11.7217 14.3967C9.22794 14.3875 6.76051 14.3737 4.91653 14.3622C3.99453 14.3565 3.22839 14.3513 2.69274 14.3476C2.42492 14.3457 2.21472 14.3442 2.07148 14.3431C1.99986 14.3426 1.94497 14.3422 1.908 14.3419L1.85216 14.3415C1.85202 14.3415 1.85194 14.3415 1.85242 14.2785C1.85289 14.2154 1.85296 14.2154 1.85311 14.2154L1.90893 14.2158C1.9459 14.2161 2.00078 14.2165 2.0724 14.217C2.21563 14.2181 2.42581 14.2196 2.69362 14.2214C3.22924 14.2252 3.99535 14.2303 4.91731 14.2361C6.76124 14.2476 9.22855 14.2614 11.7221 14.2706C14.2157 14.2798 16.7355 14.2844 18.6843 14.2775C19.6588 14.274 20.4903 14.2677 21.1043 14.2577C21.4114 14.2526 21.6638 14.2467 21.8524 14.2397C22.0431 14.2326 22.1638 14.2246 22.2112 14.2163C22.416 14.1805 22.5525 14.1299 22.6558 14.0739C22.7533 14.0211 22.8234 13.9626 22.8975 13.9007C22.9023 13.8966 22.9073 13.8925 22.9122 13.8884C22.9917 13.8221 23.077 13.7534 23.2002 13.6952C23.3234 13.6372 23.4814 13.5911 23.7071 13.5642C23.9325 13.5374 24.8048 13.5243 25.9788 13.5194C27.1556 13.5145 28.6417 13.5178 30.1001 13.5243C31.5586 13.5309 32.9894 13.5408 34.0556 13.549C34.5887 13.5531 35.0307 13.5568 35.3394 13.5594C35.4937 13.5608 35.6147 13.5618 35.6972 13.5626L35.8233 13.5637C35.8234 13.5637 35.8235 13.5637 35.8229 13.6268C35.8223 13.6899 35.8222 13.6899 35.8222 13.6899L35.696 13.6887C35.6136 13.688 35.4926 13.6869 35.3383 13.6856C35.0296 13.6829 34.5877 13.6792 34.0546 13.6751C32.9885 13.6669 31.5578 13.657 30.0996 13.6505C28.6413 13.6439 27.1555 13.6406 25.9793 13.6455Z" fill="white"/>
<path fill-rule="evenodd" clip-rule="evenodd" d="M26.5869 15.289C25.6536 15.2959 24.9415 15.3144 24.6893 15.3504C24.181 15.423 23.9894 15.5153 23.832 15.6078C23.8119 15.6196 23.7921 15.6316 23.7722 15.6436C23.6291 15.7302 23.4802 15.8202 23.1384 15.8961C23.0844 15.9081 22.9526 15.9174 22.7618 15.9253C22.568 15.9333 22.3065 15.9401 21.9873 15.9459C21.3488 15.9574 20.4783 15.9646 19.4554 15.9686C17.4095 15.9765 14.7528 15.9712 12.1198 15.9607C9.48682 15.9502 6.8775 15.9344 4.92643 15.9213C3.95089 15.9147 3.13991 15.9088 2.57282 15.9045C2.28927 15.9024 2.06669 15.9007 1.915 15.8995C1.83916 15.8989 1.78103 15.8984 1.74187 15.8981L1.68274 15.8976C1.68258 15.8976 1.6825 15.8976 1.68301 15.8346C1.68352 15.7715 1.6836 15.7715 1.68376 15.7715L1.74288 15.772C1.78203 15.7723 1.84015 15.7728 1.91599 15.7733C2.06767 15.7745 2.29024 15.7763 2.57377 15.7784C3.14084 15.7827 3.95178 15.7886 4.92728 15.7952C6.87828 15.8083 9.48748 15.8241 12.1203 15.8346C14.7532 15.8451 17.4096 15.8503 19.4549 15.8424C20.4777 15.8385 21.3474 15.8313 21.985 15.8198C22.3038 15.814 22.5643 15.8072 22.7566 15.7993C22.952 15.7912 23.0705 15.782 23.1111 15.773C23.4327 15.7015 23.5676 15.62 23.7073 15.5355C23.7273 15.5234 23.7474 15.5112 23.7681 15.499C23.9418 15.397 24.1495 15.3001 24.6714 15.2256C24.9342 15.188 25.6569 15.1698 26.5859 15.1629C27.5176 15.156 28.663 15.1606 29.7759 15.1698C30.8889 15.179 31.9697 15.1928 32.7722 15.2043C33.1734 15.21 33.5051 15.2152 33.7365 15.2189C33.8522 15.2208 33.9428 15.2223 34.0045 15.2233C34.0354 15.2239 34.059 15.2243 34.0749 15.2245L34.0989 15.225C34.099 15.225 34.099 15.225 34.0979 15.288C34.0968 15.3511 34.0968 15.3511 34.0967 15.3511L34.0727 15.3506C34.0568 15.3504 34.0332 15.35 34.0024 15.3494C33.9407 15.3484 33.8501 15.3469 33.7345 15.345C33.5031 15.3413 33.1715 15.3361 32.7704 15.3304C31.968 15.3189 30.8875 15.3051 29.7749 15.2959C28.6622 15.2867 27.5176 15.2821 26.5869 15.289Z" fill="white"/>
<path fill-rule="evenodd" clip-rule="evenodd" d="M23.4961 11.6129C23.1398 11.6313 22.8906 11.6509 22.7797 11.6711C22.5513 11.7126 22.4103 11.7573 22.3116 11.8048C22.2143 11.8516 22.1555 11.9024 22.0917 11.9624C22.0841 11.9695 22.0764 11.9768 22.0686 11.9842C22.0098 12.04 21.9425 12.1039 21.8399 12.1728C21.7238 12.2508 21.564 12.3343 21.3188 12.4249C21.1882 12.4732 20.9525 12.505 20.6488 12.5259C20.3422 12.547 19.9584 12.5574 19.5262 12.5599C18.6617 12.5648 17.6004 12.5379 16.5701 12.4998C15.5396 12.4616 14.5394 12.4123 13.7969 12.3726C13.4256 12.3527 13.1188 12.3352 12.9047 12.3227C12.7976 12.3164 12.7138 12.3114 12.6567 12.3079C12.6282 12.3062 12.6063 12.3049 12.5916 12.304L12.5693 12.3026C12.5693 12.3026 12.5693 12.3026 12.5732 12.2397C12.5771 12.1767 12.5771 12.1767 12.5772 12.1767L12.5993 12.1781C12.614 12.179 12.6358 12.1803 12.6643 12.1821C12.7213 12.1855 12.8051 12.1905 12.912 12.1968C13.1259 12.2093 13.4326 12.2268 13.8036 12.2466C14.5457 12.2864 15.5452 12.3356 16.5747 12.3737C17.6045 12.4118 18.6637 12.4387 19.5255 12.4338C19.9565 12.4313 20.3374 12.4209 20.6401 12.4001C20.9456 12.379 21.1639 12.3477 21.2751 12.3066C21.5134 12.2186 21.6637 12.1392 21.7696 12.0681C21.8629 12.0054 21.9229 11.9485 21.9816 11.8929C21.9895 11.8854 21.9973 11.878 22.0053 11.8705C22.0728 11.807 22.1427 11.7461 22.2569 11.6911C22.3698 11.6368 22.523 11.5895 22.7572 11.547C22.8776 11.5251 23.1355 11.5053 23.4896 11.4869C23.8455 11.4685 24.3029 11.4514 24.8253 11.4356C25.8703 11.4041 27.1766 11.3778 28.4537 11.3568C29.7309 11.3357 30.9791 11.32 31.9081 11.3095C32.3725 11.3042 32.7572 11.3003 33.0257 11.2976C33.16 11.2963 33.2652 11.2953 33.3369 11.2947C33.3728 11.2944 33.4002 11.2941 33.4187 11.2939L33.4466 11.2937C33.4467 11.2937 33.4467 11.2937 33.4473 11.3568C33.4478 11.4198 33.4478 11.4198 33.4477 11.4198L33.4198 11.4201C33.4013 11.4202 33.3739 11.4205 33.3381 11.4208C33.2664 11.4215 33.1612 11.4225 33.027 11.4238C32.7585 11.4264 32.3739 11.4303 31.9095 11.4356C30.9807 11.4461 29.7327 11.4619 28.4558 11.4829C27.1788 11.5039 25.8732 11.5302 24.8292 11.5617C24.3071 11.5775 23.8507 11.5945 23.4961 11.6129Z" fill="white"/>
<path fill-rule="evenodd" clip-rule="evenodd" d="M31.3238 7.76218H25.1226V7.63605H31.3238V7.76218Z" fill="white"/>
<path d="M2.35691 16.0025C4.99951 16.4994 1.43197 15.8554 1.43197 15.6662C1.43197 15.477 1.32686 14.8253 1.43197 14.6782C1.53707 14.531 1.8523 14.3628 1.87342 14.2577C1.89453 14.1526 1.78924 14.0055 1.87342 13.9004C1.95759 13.7953 2.4409 13.4169 2.58814 13.3328C2.73538 13.2487 5.19469 12.7022 6.03564 12.6811C6.87658 12.6601 12.4471 12.3238 12.5522 12.2607C12.6574 12.1976 12.4681 12.1136 12.5522 12.0085C12.6364 11.9033 12.8885 11.9033 12.9306 11.8193C12.9728 11.7352 12.7203 11.4619 12.7835 11.3778C12.8466 11.2937 13.0567 11.1676 13.1408 11.1045C13.225 11.0415 13.3089 11.1676 13.4351 11.1045C13.5614 11.0415 13.6453 10.9153 13.7925 10.9153C13.9397 10.9153 14.0237 10.9784 14.255 10.9153C14.4863 10.8523 14.36 10.7472 14.6123 10.7892C14.8647 10.8313 15.327 11.1045 15.7054 11.1045C16.0839 11.1045 18.1229 11.1676 18.1229 10.9153C18.1229 10.6631 17.7865 10.1796 18.1229 10.1376C18.4593 10.0955 20.2249 10.0114 20.4142 9.99041C20.6035 9.96939 20.5823 9.82224 20.8136 9.8853C21.045 9.94837 22.2009 10.4108 22.2851 10.2006C22.3693 9.99041 22.5373 9.67509 22.5374 9.4859C22.5375 9.2967 22.7897 9.06294 22.9999 8.99988C23.2101 8.93681 25.3752 7.84623 25.144 7.69908C24.9129 7.55193 22.3482 7.615 22.3482 7.34172C22.3482 7.06844 22.2009 7.19457 22.3482 6.9213C22.4954 6.64802 22.6844 6.29066 22.8947 6.08044C23.105 5.87023 23.4202 5.49185 23.8407 5.49185C24.2612 5.49185 24.6815 5.63899 24.8707 5.49185C25.06 5.3447 25.186 5.42878 25.2071 5.26061C25.2282 5.09244 25.4382 5.13448 25.2701 4.98733C25.1021 4.84018 24.8288 4.77712 24.6186 4.67201C24.4084 4.56691 24.3661 4.50384 24.5344 4.29363C24.7027 4.08342 25.249 3.70503 25.4383 3.53686C25.6276 3.36869 25.7325 3.07439 26.0269 2.94827C26.3213 2.82214 26.3632 2.61192 26.9098 2.56988C27.4565 2.52784 29.201 2.44375 29.1801 2.25456C29.1592 2.06537 28.8016 1.64494 29.075 1.53984C29.3484 1.43473 29.9158 1.16145 30.2312 1.14043C30.5466 1.11941 32.8377 0.993282 33.0691 0.993282C33.3004 0.993282 33.4894 1.09839 33.8889 1.07737C34.2884 1.05635 34.9188 0.909197 35.1502 0.95124C35.3815 0.993282 35.6125 0.972261 35.7808 1.07737C35.9491 1.18247 36.2012 1.24554 36.2012 1.37167C36.2012 1.49779 36.1382 1.62392 36.2012 1.68699C36.2643 1.75005 36.096 1.79209 36.0961 1.8972C36.0962 2.00231 36.096 2.25456 36.2643 2.2966C36.4326 2.33865 36.4744 2.23354 36.5796 2.2966C36.6848 2.35967 36.8319 2.38069 36.8949 2.50682C36.958 2.63294 36.8949 2.75907 36.958 2.92724C37.0212 3.09541 37.3153 3.36869 37.2943 3.55788C37.2734 3.74707 37.063 4.31465 36.8949 4.33567C36.7269 4.35669 36.3273 4.23057 36.3484 4.44078C36.3695 4.65099 36.3693 4.84018 36.5376 4.98733C36.7058 5.13448 37.6516 5.09244 37.5256 5.38674C37.3995 5.68104 36.3693 5.72308 36.2012 5.99636C36.0332 6.26963 36.033 7.36274 35.7177 7.46785C35.4025 7.57296 34.961 7.46785 34.961 7.65704C34.961 7.84623 35.024 7.88828 35.2554 8.2036C35.4867 8.51891 37.2732 9.65407 37.1892 9.86428C37.1052 10.0745 36.9369 10.1586 36.979 10.3057C37.0212 10.4529 36.8738 10.4949 37.1472 10.579C37.4206 10.6631 38.3033 10.621 38.4926 10.7682C38.6818 10.9153 38.5555 10.9994 38.7658 11.0835C38.9761 11.1676 39.3964 11.2937 39.5857 11.2307C39.7749 11.1676 40.1321 10.9784 40.2794 10.9994C40.4266 11.0205 40.6366 11.3778 40.7629 11.1676C40.8891 10.9574 40.8469 10.7892 40.9521 10.6631C41.0572 10.537 41.2463 10.4949 41.3304 10.4949C41.4146 10.4949 41.3724 10.558 41.4986 10.558C41.6248 10.558 41.6457 10.4319 41.7929 10.4949C41.9401 10.558 42.6547 10.7051 42.6338 10.8102C42.6128 10.9153 42.3814 11.1256 42.5497 11.2307C42.7179 11.3358 43.8109 11.4829 43.9161 11.546C44.0213 11.609 43.8949 11.7142 44.0632 11.7142C44.2315 11.7142 44.3994 11.567 44.4836 11.7142C44.5678 11.8613 44.7358 12.1346 44.7779 12.2187C44.8201 12.3028 44.8409 12.3448 44.9671 12.4499C45.0933 12.555 45.4715 12.6181 45.7239 12.6601C45.9762 12.7022 46.3544 12.5971 46.5437 12.6601C46.733 12.7232 46.7961 12.7862 46.8802 12.9124C46.9642 13.0385 47.1112 13.6271 46.859 13.7112C46.6069 13.7953 46.3125 13.564 46.3125 13.8163C46.3125 14.0685 46.0811 14.3839 46.3125 14.51C46.5438 14.6361 46.8379 14.6782 46.859 14.8253C46.8802 14.9725 46.901 15.1617 46.859 15.2457C46.8171 15.3298 46.796 15.3929 46.6489 15.54C46.5019 15.6872 46.7748 16.0025 46.6909 16.1917C46.6069 16.3809 46.2915 16.2758 46.2915 16.444C46.2915 16.6121 46.1232 16.6542 46.2915 16.8013C46.4597 16.9485 46.5227 16.8854 46.6489 17.0326" stroke="white" stroke-width="1.2"/>
<path d="M45.3843 16.9993C43.5699 16.9993 42.6515 17.3547 41.7633 17.6983C40.9444 18.0151 40.1709 18.3145 38.5863 18.3145C37.0016 18.3145 36.2281 18.0152 35.4092 17.6983C34.521 17.3547 33.6026 16.9993 31.7882 16.9993C29.9749 16.9993 29.057 17.3548 28.1694 17.6984C27.3511 18.0152 26.5782 18.3145 24.9948 18.3145C23.4108 18.3145 22.6377 18.0152 21.8192 17.6984C20.9313 17.3547 20.0132 16.9993 18.1994 16.9993C16.3861 16.9993 15.4683 17.3548 14.5806 17.6984C13.7624 18.0152 12.9896 18.3145 11.4062 18.3145C9.82332 18.3145 9.05067 18.0152 8.23265 17.6984C7.34524 17.3547 6.42764 16.9993 4.61475 16.9993C4.27497 16.9993 3.99951 17.2748 3.99951 17.6146C3.99951 17.9543 4.27497 18.2298 4.61475 18.2298C6.19762 18.2298 6.97019 18.529 7.78829 18.8459C8.6757 19.1896 9.5933 19.5449 11.4062 19.5449C13.2194 19.5449 14.1373 19.1895 15.0249 18.8459C15.8432 18.529 16.616 18.2298 18.1994 18.2298C19.7833 18.2298 20.5565 18.529 21.375 18.8459C22.2629 19.1896 23.181 19.5449 24.9948 19.5449C26.8081 19.5449 27.726 19.1895 28.6136 18.8459C29.4319 18.529 30.2048 18.2298 31.7882 18.2298C33.3728 18.2298 34.1463 18.529 34.9652 18.8459C35.8534 19.1896 36.7718 19.5449 38.5863 19.5449C40.4007 19.5449 41.3191 19.1896 42.2073 18.8459C43.0261 18.5291 43.7997 18.2298 45.3843 18.2298C45.7241 18.2298 45.9995 17.9543 45.9995 17.6146C45.9995 17.2748 45.7241 16.9993 45.3843 16.9993Z" fill="white"/>
<path d="M42.6703 20.6383C42.5481 20.3212 42.1918 20.1633 41.8749 20.2856L41.7628 20.3289C41.3924 20.4722 41.0426 20.6075 40.6263 20.7156C40.2974 20.8011 40.1 21.137 40.1854 21.4658C40.2574 21.7428 40.507 21.9265 40.7805 21.9265C40.8317 21.9265 40.8838 21.92 40.9356 21.9066C41.4206 21.7806 41.8202 21.6259 42.2068 21.4763L42.3175 21.4336C42.6345 21.3114 42.7925 20.9553 42.6703 20.6383Z" fill="white"/>
<path d="M38.1733 20.9374C36.8607 20.8901 36.1557 20.6174 35.4093 20.3285C34.5211 19.9849 33.6027 19.6295 31.7883 19.6295C29.975 19.6295 29.0572 19.985 28.1695 20.3286C27.3512 20.6454 26.5783 20.9447 24.995 20.9447C23.411 20.9447 22.6379 20.6454 21.8193 20.3285C20.9314 19.9849 20.0133 19.6295 18.1995 19.6295C16.3863 19.6295 15.4684 19.9849 14.5808 20.3285C13.8362 20.6169 13.1328 20.8891 11.8256 20.9371C11.486 20.9496 11.2209 21.235 11.2333 21.5745C11.2458 21.9141 11.5313 22.1785 11.8707 22.1668C13.3845 22.1112 14.2186 21.7883 15.0251 21.476C15.8434 21.1592 16.6162 20.8599 18.1996 20.8599C19.7835 20.8599 20.5567 21.1592 21.3752 21.4761C22.2631 21.8197 23.1813 22.1751 24.9951 22.1751C26.8084 22.1751 27.7262 21.8197 28.6139 21.4761C29.4321 21.1593 30.205 20.86 31.7884 20.86C33.373 20.86 34.1465 21.1593 34.9654 21.4761C35.7738 21.7889 36.6097 22.1124 38.129 22.1672C38.4664 22.1792 38.7537 21.9141 38.766 21.5745C38.7782 21.2349 38.5128 20.9497 38.1733 20.9374Z" fill="white"/>
<path d="M31.7885 22.2601C29.9752 22.2601 29.0574 22.6155 28.1697 22.9591C27.3514 23.2759 26.5785 23.5752 24.9952 23.5752C23.4112 23.5752 22.6381 23.2759 21.8195 22.9591C20.9316 22.6154 20.0135 22.2601 18.1997 22.2601C17.8599 22.2601 17.5845 22.5355 17.5845 22.8753C17.5845 23.2151 17.8599 23.4905 18.1997 23.4905C19.7836 23.4905 20.5568 23.7898 21.3754 24.1066C22.2633 24.4503 23.1814 24.8057 24.9952 24.8057C26.8085 24.8057 27.7263 24.4502 28.614 24.1066C29.4322 23.7898 30.2051 23.4905 31.7885 23.4905C32.1283 23.4905 32.4037 23.2151 32.4037 22.8753C32.4037 22.5355 32.1283 22.2601 31.7885 22.2601Z" fill="white"/>
<path d="M9.37307 20.7171C8.9543 20.6086 8.60329 20.4726 8.23169 20.3286C7.91489 20.2059 7.55846 20.3632 7.43574 20.68C7.31302 20.9969 7.47036 21.3533 7.78716 21.476C8.17517 21.6263 8.57638 21.7817 9.06431 21.9082C9.11607 21.9217 9.16799 21.9281 9.2191 21.9281C9.49267 21.9281 9.74237 21.7442 9.81423 21.4671C9.89955 21.1381 9.70202 20.8024 9.37307 20.7171Z" fill="white"/>
</svg>
