<svg width="42" height="43" viewBox="0 0 42 43" fill="none" xmlns="http://www.w3.org/2000/svg">
<path d="M41.3848 26.9637C39.5704 26.9637 38.652 27.3191 37.7637 27.6627C36.9449 27.9795 36.1714 28.2789 34.5868 28.2789C33.0021 28.2789 32.2286 27.9796 31.4097 27.6627C30.5215 27.3191 29.6031 26.9637 27.7887 26.9637C25.9754 26.9637 25.0575 27.3192 24.1699 27.6628C23.3516 27.9796 22.5787 28.2789 20.9953 28.2789C19.4113 28.2789 18.6382 27.9796 17.8196 27.6628C16.9317 27.3191 16.0136 26.9637 14.1999 26.9637C12.3866 26.9637 11.4688 27.3192 10.5811 27.6628C9.76287 27.9796 8.99005 28.2789 7.40668 28.2789C5.82381 28.2789 5.05116 27.9796 4.23314 27.6628C3.34573 27.3191 2.42813 26.9637 0.615234 26.9637C0.275461 26.9637 0 27.2392 0 27.579C0 27.9187 0.275461 28.1942 0.615234 28.1942C2.19811 28.1942 2.97068 28.4934 3.78878 28.8103C4.67619 29.154 5.59379 29.5093 7.40668 29.5093C9.2199 29.5093 10.1377 29.1539 11.0254 28.8103C11.8437 28.4934 12.6165 28.1942 14.1999 28.1942C15.7838 28.1942 16.5569 28.4934 17.3755 28.8103C18.2634 29.154 19.1815 29.5093 20.9953 29.5093C22.8086 29.5093 23.7265 29.1539 24.6141 28.8103C25.4324 28.4934 26.2053 28.1942 27.7887 28.1942C29.3733 28.1942 30.1468 28.4934 30.9656 28.8103C31.8539 29.154 32.7723 29.5093 34.5868 29.5093C36.4012 29.5093 37.3195 29.154 38.2078 28.8103C39.0266 28.4935 39.8002 28.1942 41.3848 28.1942C41.7245 28.1942 42 27.9187 42 27.579C42 27.2392 41.7245 26.9637 41.3848 26.9637Z" fill="white"/>
<path d="M38.6708 30.6027C38.5486 30.2856 38.1923 30.1277 37.8754 30.25L37.7633 30.2933C37.3929 30.4366 37.0431 30.5719 36.6267 30.68C36.2979 30.7655 36.1005 31.1014 36.1859 31.4302C36.2579 31.7072 36.5075 31.8909 36.781 31.8909C36.8322 31.8909 36.8842 31.8844 36.9361 31.871C37.4211 31.745 37.8207 31.5903 38.2073 31.4407L38.318 31.398C38.635 31.2758 38.793 30.9197 38.6708 30.6027Z" fill="white"/>
<path d="M34.1738 30.9018C32.8612 30.8545 32.1562 30.5818 31.4098 30.2929C30.5216 29.9493 29.6032 29.5939 27.7888 29.5939C25.9755 29.5939 25.0577 29.9494 24.17 30.293C23.3517 30.6098 22.5788 30.9091 20.9955 30.9091C19.4114 30.9091 18.6384 30.6098 17.8198 30.2929C16.9319 29.9493 16.0138 29.5939 14.2 29.5939C12.3868 29.5939 11.4689 29.9493 10.5813 30.2929C9.83667 30.5813 9.13334 30.8535 7.82609 30.9015C7.48648 30.914 7.22135 31.1994 7.23382 31.5389C7.24629 31.8785 7.53176 32.1429 7.8712 32.1312C9.38501 32.0756 10.2191 31.7527 11.0256 31.4404C11.8439 31.1236 12.6167 30.8243 14.2001 30.8243C15.784 30.8243 16.5572 31.1236 17.3757 31.4405C18.2636 31.7841 19.1818 32.1395 20.9955 32.1395C22.8088 32.1395 23.7267 31.7841 24.6144 31.4405C25.4326 31.1237 26.2055 30.8244 27.7889 30.8244C29.3735 30.8244 30.147 31.1237 30.9659 31.4405C31.7743 31.7533 32.6102 32.0768 34.1295 32.1316C34.4669 32.1436 34.7542 31.8785 34.7665 31.5389C34.7787 31.1993 34.5133 30.9141 34.1738 30.9018Z" fill="white"/>
<path d="M27.789 32.2245C25.9757 32.2245 25.0579 32.5799 24.1702 32.9235C23.3519 33.2403 22.579 33.5396 20.9957 33.5396C19.4116 33.5396 18.6386 33.2403 17.82 32.9235C16.9321 32.5798 16.014 32.2245 14.2002 32.2245C13.8604 32.2245 13.585 32.4999 13.585 32.8397C13.585 33.1795 13.8604 33.4549 14.2002 33.4549C15.7841 33.4549 16.5573 33.7542 17.3759 34.071C18.2638 34.4147 19.1819 34.7701 20.9957 34.7701C22.809 34.7701 23.7268 34.4146 24.6145 34.071C25.4327 33.7542 26.2056 33.4549 27.789 33.4549C28.1288 33.4549 28.4042 33.1795 28.4042 32.8397C28.4042 32.4999 28.1288 32.2245 27.789 32.2245Z" fill="white"/>
<path d="M5.37356 30.6815C4.95479 30.573 4.60378 30.437 4.23218 30.293C3.91537 30.1703 3.55895 30.3276 3.43623 30.6444C3.31351 30.9613 3.47085 31.3177 3.78765 31.4404C4.17566 31.5907 4.57687 31.7461 5.06479 31.8726C5.11656 31.8861 5.16848 31.8925 5.21959 31.8925C5.49316 31.8925 5.74286 31.7086 5.81472 31.4315C5.90003 31.1025 5.7025 30.7668 5.37356 30.6815Z" fill="white"/>
<path d="M29.0621 18.6807C27.224 16.044 24.2102 14.4698 21 14.4698C15.5845 14.4698 11.1787 18.8756 11.1787 24.2911C11.1786 24.5248 11.1869 24.7606 11.2033 24.992C11.2262 25.3162 11.4963 25.564 11.8164 25.564C11.831 25.564 11.8456 25.5635 11.8604 25.5624C12.1993 25.5385 12.4547 25.2443 12.4308 24.9053C12.4164 24.7026 12.4092 24.4959 12.4092 24.2911C12.4092 19.5541 16.2629 15.7003 21 15.7003C23.808 15.7003 26.4446 17.0775 28.0526 19.3844C28.247 19.6631 28.6304 19.7315 28.9092 19.5373C29.1879 19.343 29.2564 18.9595 29.0621 18.6807Z" fill="white"/>
<path d="M8.506 23.6759H4.56055C4.22077 23.6759 3.94531 23.9513 3.94531 24.2911C3.94531 24.6309 4.22077 24.9064 4.56055 24.9064H8.506C8.84578 24.9064 9.12124 24.6309 9.12124 24.2911C9.12124 23.9513 8.84578 23.6759 8.506 23.6759Z" fill="white"/>
<path d="M21 7.23656C20.6602 7.23656 20.3848 7.51202 20.3848 7.85179V11.7972C20.3848 12.1371 20.6602 12.4125 21 12.4125C21.3398 12.4125 21.6152 12.137 21.6152 11.7972V7.85179C21.6152 7.51202 21.3398 7.23656 21 7.23656Z" fill="white"/>
<path d="M33.0594 12.2317C32.8191 11.9915 32.4295 11.9915 32.1893 12.2317L29.3994 15.0216C29.1592 15.2619 29.1592 15.6515 29.3994 15.8917C29.5195 16.0117 29.677 16.0719 29.8345 16.0719C29.9919 16.0719 30.1494 16.0118 30.2695 15.8917L33.0594 13.1018C33.2996 12.8615 33.2996 12.4719 33.0594 12.2317Z" fill="white"/>
<path d="M16.7871 12.5128L16.2839 11.2977C16.1539 10.9838 15.794 10.8348 15.4801 10.9648C15.1661 11.0948 15.0171 11.4547 15.1471 11.7686L15.6503 12.9836C15.7485 13.2206 15.9776 13.3636 16.219 13.3636C16.2975 13.3636 16.3772 13.3485 16.4542 13.3166C16.7681 13.1866 16.9172 12.8266 16.7871 12.5128Z" fill="white"/>
<path d="M34.3266 18.7714C34.1965 18.4576 33.8367 18.3084 33.5227 18.4384L32.3077 18.9417C31.9938 19.0716 31.8447 19.4316 31.9747 19.7455C32.0728 19.9824 32.3019 20.1255 32.5434 20.1255C32.6219 20.1255 32.7016 20.1104 32.7785 20.0785L33.9936 19.5752C34.3075 19.4452 34.4566 19.0853 34.3266 18.7714Z" fill="white"/>
<path d="M26.5201 10.9648C26.2062 10.8348 25.8463 10.9839 25.7163 11.2978L25.213 12.5128C25.083 12.8267 25.232 13.1866 25.546 13.3167C25.6229 13.3486 25.7027 13.3637 25.7812 13.3637C26.0226 13.3637 26.2517 13.2206 26.3498 12.9837L26.8531 11.7687C26.9831 11.4547 26.834 11.0949 26.5201 10.9648Z" fill="white"/>
<path d="M9.69281 18.9415L8.47777 18.4382C8.16375 18.3082 7.80396 18.4573 7.67394 18.7712C7.54392 19.0851 7.69297 19.445 8.00691 19.575L9.22195 20.0783C9.29898 20.1102 9.37872 20.1253 9.45714 20.1253C9.69856 20.1253 9.92767 19.9822 10.0258 19.7453C10.1558 19.4314 10.0067 19.0715 9.69281 18.9415Z" fill="white"/>
<path d="M9.58646 11.1822C8.67772 11.1822 7.80023 11.485 7.0772 12.0419C6.74785 11.9388 6.4084 11.8867 6.06379 11.8867C4.17059 11.8867 2.63037 13.4269 2.63037 15.3201C2.63037 15.6599 2.90583 15.9353 3.24561 15.9353H13.1092C13.449 15.9353 13.7244 15.6599 13.7244 15.3201C13.7244 13.0385 11.8682 11.1822 9.58646 11.1822ZM3.94829 14.7048C4.21513 13.7886 5.06252 13.1171 6.06379 13.1171C6.36689 13.1171 6.66516 13.1809 6.9503 13.3069C7.17498 13.406 7.43707 13.3622 7.61713 13.1951C8.16133 12.6905 8.86081 12.4126 9.58654 12.4126C10.9787 12.4126 12.1454 13.3961 12.4286 14.7048H3.94829Z" fill="white"/>
<path d="M31.333 21.5153C30.9884 21.5153 30.649 21.5674 30.3196 21.6706C29.5966 21.1136 28.719 20.8108 27.8103 20.8108C25.5286 20.8108 23.6724 22.6671 23.6724 24.9487C23.6724 25.2885 23.9478 25.5639 24.2876 25.5639H34.1512C34.491 25.5639 34.7664 25.2885 34.7664 24.9487C34.7664 23.0555 33.2262 21.5153 31.333 21.5153ZM24.9683 24.3334C25.2514 23.0248 26.4182 22.0413 27.8103 22.0413C28.5361 22.0413 29.2355 22.3192 29.7798 22.8238C29.9599 22.9908 30.2218 23.0346 30.4465 22.9355C30.7316 22.8096 31.0299 22.7457 31.333 22.7457C32.3343 22.7457 33.1817 23.4172 33.4486 24.3334H24.9683Z" fill="white"/>
</svg>
