<svg width="42" height="43" viewBox="0 0 42 43" fill="none" xmlns="http://www.w3.org/2000/svg">
<path d="M7.22119 6.88843C6.85828 6.88843 6.56494 6.59508 6.56494 6.23218C6.56494 5.86993 6.27094 5.57593 5.90869 5.57593C5.54644 5.57593 5.25244 5.86993 5.25244 6.23218C5.25244 6.59508 4.9591 6.88843 4.59619 6.88843C4.23329 6.88843 3.93994 6.59508 3.93994 6.23218C3.93994 5.14674 4.82325 4.26343 5.90869 4.26343C6.99413 4.26343 7.87744 5.14674 7.87744 6.23218C7.87744 6.59508 7.5841 6.88843 7.22119 6.88843Z" fill="white"/>
<path d="M5.90869 14.1085C4.82325 14.1085 3.93994 13.2251 3.93994 12.1397C3.93994 11.7768 4.23329 11.4835 4.59619 11.4835C4.9591 11.4835 5.25244 11.7768 5.25244 12.1397C5.25244 12.502 5.54644 12.796 5.90869 12.796C6.27094 12.796 6.56494 12.502 6.56494 12.1397C6.56494 11.7768 6.85828 11.4835 7.22119 11.4835C7.5841 11.4835 7.87744 11.7768 7.87744 12.1397C7.87744 13.2251 6.99413 14.1085 5.90869 14.1085Z" fill="white"/>
<path d="M4.59619 12.796C4.23328 12.796 3.93994 12.5027 3.93994 12.1397V6.23218C3.93994 5.86927 4.23328 5.57593 4.59619 5.57593C4.9591 5.57593 5.25244 5.86927 5.25244 6.23218V12.1397C5.25244 12.5027 4.9591 12.796 4.59619 12.796Z" fill="white"/>
<path d="M7.22119 12.796C6.85829 12.796 6.56494 12.5027 6.56494 12.1397V6.23218C6.56494 5.86927 6.85829 5.57593 7.22119 5.57593C7.5841 5.57593 7.87744 5.86927 7.87744 6.23218V12.1397C7.87744 12.5027 7.5841 12.796 7.22119 12.796Z" fill="white"/>
<path d="M5.90869 5.57593C5.54579 5.57593 5.25244 5.28258 5.25244 4.91968V4.26343C5.25244 3.90052 5.54579 3.60718 5.90869 3.60718C6.2716 3.60718 6.56494 3.90052 6.56494 4.26343V4.91968C6.56494 5.28258 6.2716 5.57593 5.90869 5.57593Z" fill="white"/>
<path d="M5.90869 33.8038C5.54579 33.8038 5.25244 33.5105 5.25244 33.1476V13.4522C5.25244 13.0893 5.54579 12.796 5.90869 12.796C6.2716 12.796 6.56494 13.0893 6.56494 13.4522V33.1476C6.56494 33.5105 6.2716 33.8038 5.90869 33.8038Z" fill="white"/>
<path d="M15.75 9.51605C15.3871 9.51605 15.0938 9.22271 15.0938 8.8598C15.0938 8.49755 14.7998 8.20355 14.4375 8.20355C14.0753 8.20355 13.7812 8.49755 13.7812 8.8598C13.7812 9.22271 13.4879 9.51605 13.125 9.51605C12.7621 9.51605 12.4688 9.22271 12.4688 8.8598C12.4688 7.77436 13.3521 6.89105 14.4375 6.89105C15.5229 6.89105 16.4062 7.77436 16.4062 8.8598C16.4062 9.22271 16.1129 9.51605 15.75 9.51605Z" fill="white"/>
<path d="M14.4375 16.7361C13.3521 16.7361 12.4688 15.8528 12.4688 14.7673C12.4688 14.4044 12.7621 14.1111 13.125 14.1111C13.4879 14.1111 13.7812 14.4044 13.7812 14.7673C13.7812 15.1296 14.0753 15.4236 14.4375 15.4236C14.7998 15.4236 15.0938 15.1296 15.0938 14.7673C15.0938 14.4044 15.3871 14.1111 15.75 14.1111C16.1129 14.1111 16.4062 14.4044 16.4062 14.7673C16.4062 15.8528 15.5229 16.7361 14.4375 16.7361Z" fill="white"/>
<path d="M13.125 15.4236C12.7621 15.4236 12.4688 15.1303 12.4688 14.7674V8.8598C12.4688 8.4969 12.7621 8.20355 13.125 8.20355C13.4879 8.20355 13.7812 8.4969 13.7812 8.8598V14.7674C13.7812 15.1303 13.4879 15.4236 13.125 15.4236Z" fill="white"/>
<path d="M15.75 15.4236C15.3871 15.4236 15.0938 15.1303 15.0938 14.7674V8.8598C15.0938 8.4969 15.3871 8.20355 15.75 8.20355C16.1129 8.20355 16.4062 8.4969 16.4062 8.8598V14.7674C16.4062 15.1303 16.1129 15.4236 15.75 15.4236Z" fill="white"/>
<path d="M14.4375 8.20355C14.0746 8.20355 13.7812 7.91021 13.7812 7.5473V6.89105C13.7812 6.52815 14.0746 6.2348 14.4375 6.2348C14.8004 6.2348 15.0938 6.52815 15.0938 6.89105V7.5473C15.0938 7.91021 14.8004 8.20355 14.4375 8.20355Z" fill="white"/>
<path d="M14.4375 33.8038C14.0746 33.8038 13.7812 33.5105 13.7812 33.1476V16.0798C13.7812 15.7169 14.0746 15.4236 14.4375 15.4236C14.8004 15.4236 15.0938 15.7169 15.0938 16.0798V33.1476C15.0938 33.5105 14.8004 33.8038 14.4375 33.8038Z" fill="white"/>
<path d="M8.53446 33.804C8.51477 33.804 8.49443 33.8033 8.47409 33.8013C8.11315 33.7685 7.84737 33.4496 7.88018 33.088L9.84893 11.4278C9.8824 11.0675 10.1961 10.8024 10.5623 10.8339C10.9232 10.8667 11.189 11.1856 11.1562 11.5472L9.18743 33.2074C9.15593 33.5474 8.87046 33.804 8.53446 33.804Z" fill="white"/>
<path d="M4.59516 33.8038C4.25916 33.8038 3.97369 33.5472 3.94219 33.2072L1.97344 11.5471C1.94063 11.1855 2.20641 10.8665 2.56735 10.8337C2.93485 10.8035 3.24722 11.0673 3.28069 11.4276L5.24944 33.0878C5.28226 33.4494 5.01647 33.7683 4.65554 33.8011C4.63519 33.8031 4.61485 33.8038 4.59516 33.8038Z" fill="white"/>
<path d="M41.3438 33.8112H0.65625C0.293344 33.8112 0 33.5178 0 33.1549C0 32.792 0.293344 32.4987 0.65625 32.4987H41.3438C41.7067 32.4987 42 32.792 42 33.1549C42 33.5178 41.7067 33.8112 41.3438 33.8112Z" fill="white"/>
<path d="M15.7506 33.8111C15.7204 33.8111 15.6902 33.8091 15.6594 33.8045C15.3004 33.7553 15.0497 33.4232 15.0996 33.0643L18.3808 9.43006C18.4301 9.07109 18.7595 8.81647 19.1211 8.87028C19.4801 8.9195 19.7307 9.25156 19.6809 9.61053L16.3996 33.2447C16.3543 33.5728 16.0728 33.8111 15.7506 33.8111Z" fill="white"/>
<path d="M14.4368 33.8038C14.1363 33.8038 13.8646 33.5957 13.7963 33.2899L11.1713 21.4755C11.0932 21.1217 11.3164 20.7713 11.6701 20.6925C12.0232 20.619 12.3742 20.8376 12.453 21.1913L15.078 33.0058C15.1561 33.3595 14.933 33.7099 14.5792 33.7887C14.532 33.7985 14.4841 33.8038 14.4368 33.8038Z" fill="white"/>
<path d="M19.0312 36.4309H1.3125C0.949594 36.4309 0.65625 36.1376 0.65625 35.7747C0.65625 35.4118 0.949594 35.1184 1.3125 35.1184H19.0312C19.3942 35.1184 19.6875 35.4118 19.6875 35.7747C19.6875 36.1376 19.3942 36.4309 19.0312 36.4309Z" fill="white"/>
<path d="M40.0312 38.3989H24.2812C23.9183 38.3989 23.625 38.1056 23.625 37.7427C23.625 37.3798 23.9183 37.0864 24.2812 37.0864H40.0312C40.3942 37.0864 40.6875 37.3798 40.6875 37.7427C40.6875 38.1056 40.3942 38.3989 40.0312 38.3989Z" fill="white"/>
<path d="M24.6127 33.8125C23.7064 33.8125 22.9688 33.0749 22.9688 32.1686C22.9688 31.2623 23.7064 30.5247 24.6127 30.5247C24.9756 30.5247 25.2689 30.818 25.2689 31.1809C25.2689 31.5438 24.9756 31.8372 24.6127 31.8372C24.4302 31.8372 24.2813 31.9861 24.2813 32.1686C24.2813 32.351 24.4302 32.5 24.6127 32.5C24.9756 32.5 25.2689 32.7933 25.2689 33.1562C25.2689 33.5191 24.9756 33.8125 24.6127 33.8125Z" fill="white"/>
<path d="M37.0815 33.8125C36.7186 33.8125 36.4253 33.5191 36.4253 33.1562C36.4253 32.7933 36.7186 32.5 37.0815 32.5C37.264 32.5 37.4129 32.351 37.4129 32.1686C37.4129 31.9861 37.264 31.8372 37.0815 31.8372C36.7186 31.8372 36.4253 31.5438 36.4253 31.1809C36.4253 30.818 36.7186 30.5247 37.0815 30.5247C37.9878 30.5247 38.7254 31.2623 38.7254 32.1686C38.7254 33.0749 37.9878 33.8125 37.0815 33.8125Z" fill="white"/>
<path d="M37.0815 31.8372H24.6128C24.2499 31.8372 23.9565 31.5438 23.9565 31.1809C23.9565 30.818 24.2499 30.5247 24.6128 30.5247H37.0815C37.4444 30.5247 37.7378 30.818 37.7378 31.1809C37.7378 31.5438 37.4444 31.8372 37.0815 31.8372Z" fill="white"/>
<path d="M30.8472 31.837C30.4843 31.837 30.1909 31.5437 30.1909 31.1808C30.1909 27.202 33.4282 23.9653 37.4064 23.9653C37.7693 23.9653 38.0626 24.2587 38.0626 24.6216C38.0626 24.9845 37.7693 25.2778 37.4064 25.2778C34.1514 25.2778 31.5034 27.9258 31.5034 31.1808C31.5034 31.5437 31.2101 31.837 30.8472 31.837Z" fill="white"/>
<path d="M30.8472 31.837C30.4843 31.837 30.1909 31.5437 30.1909 31.1808C30.1909 30.8179 30.4843 30.5245 30.8472 30.5245C34.1022 30.5245 36.7501 27.8766 36.7501 24.6216C36.7501 24.2587 37.0435 23.9653 37.4064 23.9653C37.7693 23.9653 38.0626 24.2587 38.0626 24.6216C38.0626 28.5998 34.8254 31.837 30.8472 31.837Z" fill="white"/>
<path d="M30.8424 31.837C30.4795 31.837 30.1862 31.5437 30.1862 31.1808C30.1862 27.9258 27.5382 25.2778 24.2832 25.2778C23.9203 25.2778 23.627 24.9845 23.627 24.6216C23.627 24.2587 23.9203 23.9653 24.2832 23.9653C28.262 23.9653 31.4987 27.2026 31.4987 31.1808C31.4987 31.5437 31.2053 31.837 30.8424 31.837Z" fill="white"/>
<path d="M30.8424 31.837C26.8636 31.837 23.627 28.5998 23.627 24.6216C23.627 24.2587 23.9203 23.9653 24.2832 23.9653C24.6461 23.9653 24.9395 24.2587 24.9395 24.6216C24.9395 27.8766 27.5874 30.5245 30.8424 30.5245C31.2053 30.5245 31.4987 30.8179 31.4987 31.1808C31.4987 31.5437 31.2053 31.837 30.8424 31.837Z" fill="white"/>
<path d="M32.7662 27.1987C32.4033 27.1987 32.11 26.9053 32.11 26.5424C32.11 24.9668 31.4951 23.4843 30.3795 22.3687C30.1229 22.1121 30.1229 21.6973 30.3795 21.4407C30.6361 21.1841 31.0508 21.1841 31.3074 21.4407C32.6711 22.8044 33.4225 24.6163 33.4225 26.5424C33.4225 26.9053 33.1285 27.1987 32.7662 27.1987Z" fill="white"/>
<path d="M28.9209 27.1987C28.558 27.1987 28.2646 26.9053 28.2646 26.5424C28.2646 24.6157 29.0161 22.8044 30.3797 21.4407C30.6363 21.1841 31.0511 21.1841 31.3077 21.4407C31.5643 21.6973 31.5643 22.1121 31.3077 22.3687C30.1921 23.4843 29.5771 24.9668 29.5771 26.5424C29.5771 26.9053 29.2838 27.1987 28.9209 27.1987Z" fill="white"/>
<path d="M26.9074 14.1196C26.7394 14.1196 26.5714 14.0553 26.4434 13.9273L25.1309 12.6148C24.8743 12.3582 24.8743 11.9435 25.1309 11.6869C25.3875 11.4303 25.8023 11.4303 26.0589 11.6869L27.3714 12.9994C27.628 13.256 27.628 13.6707 27.3714 13.9273C27.2434 14.0553 27.0754 14.1196 26.9074 14.1196Z" fill="white"/>
<path d="M26.9074 14.1196C26.7394 14.1196 26.5714 14.0553 26.4434 13.9273C26.1868 13.6707 26.1868 13.256 26.4434 12.9994L28.4122 11.0306C28.6688 10.774 29.0835 10.774 29.3401 11.0306C29.5967 11.2872 29.5967 11.702 29.3401 11.9586L27.3714 13.9273C27.2434 14.0553 27.0754 14.1196 26.9074 14.1196Z" fill="white"/>
<path d="M34.1257 16.0891C33.9577 16.0891 33.7897 16.0248 33.6617 15.8968L33.0054 15.2406C32.7488 14.984 32.7488 14.5692 33.0054 14.3126C33.262 14.056 33.6768 14.056 33.9334 14.3126L34.5896 14.9689C34.8462 15.2255 34.8462 15.6402 34.5896 15.8968C34.4617 16.0248 34.2937 16.0891 34.1257 16.0891Z" fill="white"/>
<path d="M34.1257 16.0891C33.9577 16.0891 33.7897 16.0248 33.6617 15.8968C33.4051 15.6402 33.4051 15.2255 33.6617 14.9689L34.9742 13.6564C35.2308 13.3998 35.6455 13.3998 35.9021 13.6564C36.1587 13.913 36.1587 14.3277 35.9021 14.5843L34.5896 15.8968C34.4616 16.0248 34.2937 16.0891 34.1257 16.0891Z" fill="white"/>
</svg>
