<svg width="42" height="43" viewBox="0 0 42 43" fill="none" xmlns="http://www.w3.org/2000/svg">
<g clip-path="url(#clip0_386_4423)">
<path d="M41.3597 30.8025C39.7069 30.6913 38.0478 30.7148 36.3987 30.8724V29.9745C36.8779 29.8176 37.2823 29.4894 37.5347 29.0528C37.8932 28.4325 37.8868 27.6665 37.5179 27.0524C37.2193 26.5546 36.8922 26.0747 36.538 25.6148C36.3299 25.3662 36.0223 25.2226 35.6981 25.2226C35.3739 25.2226 35.0663 25.3662 34.8582 25.6148C34.5043 26.0743 34.1771 26.5539 33.8783 27.051C33.5094 27.6655 33.503 28.4316 33.8615 29.0521C34.114 29.4892 34.519 29.8177 34.9989 29.9746V31.0245C31.6608 31.4003 28.4385 32.471 25.5394 34.1678C23.1565 33.7238 20.8366 32.9907 18.6312 31.9848C20.1197 31.4094 21.5474 30.688 22.8937 29.8312L22.9637 29.7878C23.0435 29.7395 23.1247 29.6898 23.187 29.6478C33.0782 23.1861 40.8851 23.8035 41.2141 23.8356C41.5991 23.8704 41.9395 23.5865 41.9742 23.2015C42.009 22.8165 41.7251 22.4762 41.3401 22.4414C41.1042 22.4197 37.2057 22.111 31.4992 24.0253V22.3224C32.4309 22.1179 33.2354 21.5346 33.7194 20.7126C34.3999 19.5724 34.4373 18.16 33.8181 16.9855C33.2496 15.9258 32.6222 14.8988 31.9388 13.9093C31.6843 13.5291 31.2569 13.3008 30.7993 13.3008C30.3418 13.3008 29.9144 13.5291 29.6599 13.9093C28.9765 14.8988 28.3491 15.9258 27.7806 16.9855C27.1614 18.16 27.1987 19.5724 27.8793 20.7126C28.3633 21.5346 29.1677 22.1178 30.0994 22.3224V24.5285C29.1623 24.8869 28.1859 25.3027 27.1745 25.7884C26.1279 24.0663 24.2352 23.0411 22.2211 23.1055C20.207 23.1698 18.3835 24.3137 17.4491 26.0992C15.8827 25.2603 14.2634 24.5243 12.6014 23.8958V21.9997C13.2715 21.8038 13.8428 21.3618 14.2008 20.7623C14.8071 19.7716 14.8639 18.5394 14.3513 17.4971C13.9186 16.6295 13.4398 15.7856 12.9171 14.9691C12.7016 14.6128 12.3155 14.3951 11.8991 14.3951C11.4826 14.3951 11.0966 14.6128 10.881 14.9691C10.3597 15.7855 9.88255 16.6294 9.45177 17.4971C8.93996 18.5399 8.99778 19.7721 9.60507 20.7623C9.96236 21.3612 10.5325 21.8031 11.2016 21.9997V23.3996C9.60072 22.8616 7.9634 22.4387 6.30222 22.1342V21.3537C6.72922 21.1896 7.0911 20.8908 7.33323 20.5026C7.78025 19.774 7.82298 18.8672 7.44658 18.0997C7.15434 17.513 6.83077 16.9425 6.47717 16.3906C6.27884 16.1028 5.95174 15.9309 5.60224 15.9309C5.25275 15.9309 4.92564 16.1028 4.72732 16.3906C4.37388 16.9421 4.05031 17.5122 3.7579 18.0984C3.3815 18.8661 3.42432 19.773 3.87125 20.5018C4.11322 20.8903 4.4751 21.1893 4.90227 21.3536V21.9136C3.51233 21.7103 2.10606 21.64 0.702752 21.7036C0.452668 21.7219 0.231373 21.8722 0.12212 22.0978C0.0128672 22.3235 0.0323883 22.5903 0.17322 22.7977C0.314051 23.0051 0.554867 23.1217 0.804952 23.1034C1.58818 23.0467 8.72941 22.6967 17.855 27.9119C18.8369 28.4715 19.8563 28.9626 20.906 29.3817C19.742 30.0206 18.5241 30.556 17.2664 30.9817C16.5532 29.7722 15.8162 28.6957 15.2877 27.9622C14.9917 27.5488 14.5146 27.3037 14.0061 27.3037C13.4977 27.3037 13.0205 27.5489 12.7245 27.9622C12.5405 28.2184 12.3284 28.5222 12.103 28.8511C8.42223 27.5825 4.52644 27.0562 0.641072 27.3028C0.390988 27.3248 0.171661 27.4786 0.0656892 27.7061C-0.040283 27.9337 -0.0168247 28.2005 0.127288 28.406C0.2714 28.6116 0.514184 28.7247 0.764269 28.7026C4.3323 28.4916 7.90829 28.9498 11.3078 30.0535C10.9887 30.5588 10.6618 31.1033 10.3483 31.6633C9.59925 32.9928 9.61844 34.6213 10.3986 35.9328C11.0254 37.0123 12.1053 37.7519 13.3383 37.9464V40.0063C11.5498 40.3809 9.72794 40.5734 7.90066 40.581L0.70267 40.6012C0.316102 40.6012 0.00277846 40.9145 0.00277846 41.3011C0.00277846 41.6877 0.316102 42.001 0.70267 42.001L7.90271 41.9807C9.9553 41.973 12.0009 41.7427 14.0039 41.2941C14.0151 41.2941 14.0249 41.3011 14.0368 41.3011C14.1451 41.2992 14.2514 41.2716 14.3468 41.2206C16.5942 40.6978 18.7634 39.8825 20.7987 38.7954C22.3809 37.9356 23.9102 36.9818 25.3783 35.939C25.5946 35.7815 25.8178 35.6373 26.0523 35.4925C32.311 31.4701 41.1461 32.1917 41.2343 32.2028C41.621 32.2374 41.9627 31.9519 41.9972 31.5652C42.0317 31.1785 41.7465 30.8371 41.3597 30.8025ZM29.0782 19.995C28.6434 19.2775 28.6205 18.3835 29.018 17.6447C29.6402 16.4696 30.338 15.3979 30.7853 14.705C31.4378 15.6508 32.0372 16.6322 32.5806 17.6447C32.9781 18.3835 32.9552 19.2775 32.5204 19.995C32.1716 20.6181 31.5133 21.0041 30.7993 21.0041C30.0853 21.0041 29.4269 20.6181 29.0782 19.995ZM6.14465 19.762C6.03507 19.9616 5.82961 20.0899 5.60224 20.1008C5.3748 20.0898 5.16941 19.9616 5.05983 19.762C4.86667 19.4442 4.84928 19.0499 5.01365 18.7163C5.20755 18.3243 5.4154 17.9527 5.60232 17.6385C5.78917 17.9527 5.9971 18.3244 6.19099 18.717C6.3552 19.0503 6.33781 19.4445 6.14465 19.762ZM10.7907 20.0237C10.4372 19.4447 10.4047 18.725 10.7046 18.1165C11.1098 17.294 11.5557 16.5347 11.9014 15.9796C12.2472 16.5347 12.693 17.2941 13.0983 18.1165C13.3982 18.725 13.3658 19.4447 13.0122 20.0237C12.796 20.4371 12.368 20.6962 11.9014 20.6962C11.4349 20.6963 11.007 20.4371 10.7907 20.0237ZM18.6796 26.7661C19.4019 25.378 20.8355 24.5061 22.4003 24.5033C23.8239 24.5019 25.1507 25.2237 25.923 26.4196C24.7961 27.0111 23.6342 27.6858 22.4437 28.462C21.1406 28.0107 19.8808 27.4431 18.6796 26.7661ZM14.0013 36.6027C13.0136 36.6027 12.1006 36.0765 11.6054 35.2218V35.2239C11.0786 34.3396 11.0658 33.2408 11.5718 32.3445C12.2653 31.1142 13.0278 29.924 13.8556 28.7798C13.8885 28.7318 13.943 28.703 14.0012 28.703C14.0594 28.703 14.1139 28.7318 14.1468 28.7798C14.9745 29.9234 15.737 31.1128 16.4306 32.3424C16.9367 33.2389 16.9238 34.3375 16.397 35.2219C15.9019 36.0765 14.989 36.6027 14.0013 36.6027ZM20.1374 37.563C18.4264 38.4758 16.6147 39.1854 14.7389 39.6775V37.9326C15.9417 37.7209 16.9899 36.9894 17.6037 35.9336C18.0712 35.1441 18.272 34.2249 18.1762 33.3124C20.0193 34.1363 21.9347 34.7876 23.898 35.2582C22.685 36.0906 21.4297 36.8599 20.1374 37.563ZM35.6987 28.6819C35.4519 28.6819 35.2206 28.5617 35.0786 28.3598C34.9694 28.1756 34.9719 27.946 35.0849 27.7641C35.2865 27.4233 35.5048 27.0999 35.6987 26.8311C35.8919 27.0999 36.111 27.4233 36.3126 27.7648C36.4255 27.9464 36.4279 28.1757 36.3189 28.3597C36.1769 28.5617 35.9455 28.6819 35.6987 28.6819Z" fill="white"/>
<path d="M10.8516 11.2047H12.6371C12.8088 12.4069 13.8367 13.301 15.0511 13.3045H21.3504C22.6487 13.3042 23.7214 12.2912 23.7957 10.995C23.87 9.6988 22.9202 8.56977 21.6304 8.42115C21.3025 6.78629 19.8682 5.60878 18.2008 5.60534C17.8798 5.60911 17.5608 5.65767 17.2531 5.74953C16.6977 4.29553 15.2465 3.38509 13.6956 3.5178C12.1447 3.65051 10.8693 4.79414 10.5689 6.32139C9.27849 6.47001 8.32852 7.59994 8.40357 8.89663C8.47862 10.1933 9.55269 11.206 10.8516 11.2047ZM18.2007 7.0052C19.3604 7.0052 20.3005 7.94534 20.3005 9.10496C20.3005 9.49153 20.6138 9.80486 21.0004 9.80486H21.3504C21.9302 9.80486 22.4002 10.2749 22.4002 10.8547C22.4017 11.1336 22.2917 11.4016 22.0944 11.5988C21.8972 11.7959 21.6292 11.9061 21.3504 11.9046H15.0511C14.4713 11.9046 14.0012 11.4345 14.0012 10.8547C14.0012 10.2749 14.4713 9.80486 15.0511 9.80486H15.4011C15.7877 9.80486 16.101 9.49153 16.101 9.10496C16.101 7.94534 17.041 7.0052 18.2007 7.0052ZM10.1076 8.01096C10.3048 7.81378 10.5727 7.70362 10.8516 7.7051H11.2016C11.5881 7.7051 11.9015 7.39169 11.9015 7.0052C11.9028 5.96771 12.6617 5.08663 13.6876 4.93169C14.7134 4.77675 15.6987 5.39429 16.0065 6.38512C15.3693 6.89849 14.9323 7.61897 14.7712 8.42115C13.9299 8.51039 13.1981 9.03615 12.845 9.80486H10.8516C10.2718 9.80486 9.80171 9.33479 9.80171 8.75498C9.80015 8.4761 9.91031 8.20822 10.1076 8.01096Z" fill="white"/>
<path d="M29.0491 7.70509H35.3484C36.6467 7.70484 37.7194 6.69179 37.7937 5.3956C37.868 4.09941 36.9182 2.97038 35.6284 2.82176C35.3028 1.18411 33.8657 0.00463867 32.1961 0.00463867C30.5264 0.00463867 29.0892 1.18411 28.7637 2.82176C27.4728 2.97046 26.5226 4.10122 26.5985 5.39839C26.6743 6.69565 27.7497 7.70788 29.0491 7.70509ZM28.3051 4.51141C28.5023 4.31415 28.7702 4.20399 29.0491 4.20555H29.3991C29.7857 4.20555 30.099 3.89223 30.099 3.50566C30.099 2.34603 31.0391 1.4059 32.1988 1.4059C33.3584 1.4059 34.2985 2.34603 34.2985 3.50566C34.2985 3.89223 34.6118 4.20555 34.9984 4.20555H35.3484C35.7235 4.20555 36.0701 4.40568 36.2576 4.73049C36.4451 5.05529 36.4451 5.45556 36.2576 5.78037C36.0701 6.10517 35.7235 6.30531 35.3484 6.30531H29.0491C28.6234 6.30662 28.2392 6.05079 28.0761 5.65766C27.913 5.26445 28.0035 4.81169 28.3051 4.51141Z" fill="white"/>
</g>
<defs>
<clipPath id="clip0_386_4423">
<rect width="42" height="42" fill="white" transform="translate(0 0.00289917)"/>
</clipPath>
</defs>
</svg>
