<svg width="42" height="43" viewBox="0 0 42 43" fill="none" xmlns="http://www.w3.org/2000/svg">
<path d="M40.2973 32.5196H1.70268C1.57932 32.5196 1.45929 32.4795 1.36077 32.4053C1.26224 32.331 1.19059 32.2267 1.15666 32.1081C1.12273 31.9895 1.12836 31.8631 1.17271 31.748C1.21705 31.6328 1.2977 31.5353 1.40243 31.4701L2.99787 30.4752C4.46038 29.5744 6.11077 29.0227 7.82098 28.8628C9.53119 28.703 11.2552 28.9393 12.8594 29.5534C13.2384 29.7013 13.6468 29.7583 14.0519 29.7196C14.4569 29.681 14.8472 29.5479 15.1915 29.331L18.0617 27.5556C19.6236 26.5896 21.4121 26.0512 23.2477 25.9946C25.0834 25.9379 26.9017 26.3649 28.5202 27.2327C33.8645 30.1176 40.3393 31.3822 40.404 31.3946C40.5426 31.4213 40.6663 31.4987 40.751 31.6116C40.8356 31.7246 40.8751 31.8651 40.8618 32.0056C40.8485 32.1461 40.7833 32.2766 40.6789 32.3717C40.5745 32.4667 40.4384 32.5194 40.2973 32.5196ZM3.68916 31.3844H35.7789C33.0828 30.5911 30.471 29.5353 27.9811 28.2322C26.5382 27.459 24.9175 27.0786 23.2813 27.1292C21.6452 27.1798 20.0511 27.6596 18.6588 28.5205L15.7954 30.2924C15.3014 30.602 14.7421 30.7922 14.1618 30.8479C13.5815 30.9036 12.9962 30.8232 12.4524 30.6131C11.029 30.068 9.50015 29.8541 7.9818 29.9878C6.46345 30.1214 4.99546 30.599 3.68916 31.3844Z" fill="white"/>
<path d="M35.4107 31.2421C35.2602 31.2421 35.1158 31.1823 35.0094 31.0758C34.9029 30.9694 34.8431 30.825 34.8431 30.6745V25.2395L32.02 23.5935C31.9339 23.5438 31.8624 23.4723 31.8126 23.3863C31.7628 23.3002 31.7365 23.2026 31.7363 23.1031V13.6282L30.2572 12.3455C30.1435 12.2468 30.0736 12.107 30.0629 11.9568C30.0523 11.8066 30.1018 11.6584 30.2004 11.5446C30.2991 11.4309 30.4389 11.361 30.5891 11.3504C30.7393 11.3397 30.8875 11.3892 31.0013 11.4879L32.6756 12.9403C32.7371 12.9936 32.7864 13.0595 32.8202 13.1335C32.854 13.2075 32.8714 13.288 32.8714 13.3694V22.7774L35.6945 24.4233C35.7806 24.473 35.8521 24.5445 35.9019 24.6305C35.9517 24.7166 35.9781 24.8142 35.9783 24.9137V30.6745C35.9783 30.825 35.9185 30.9694 35.812 31.0758C35.7056 31.1823 35.5612 31.2421 35.4107 31.2421Z" fill="white"/>
<path d="M24.0759 23.6361C23.9253 23.6361 23.781 23.5763 23.6745 23.4699C23.5681 23.3634 23.5083 23.2191 23.5083 23.0685V12.4794C23.5083 12.3439 23.5568 12.2128 23.6451 12.1099L25.7286 9.68471C25.7819 9.62259 25.848 9.57273 25.9223 9.53854C25.9967 9.50434 26.0776 9.48664 26.1594 9.48663H30.6341C30.7846 9.48663 30.929 9.54643 31.0354 9.65287C31.1419 9.75931 31.2017 9.90367 31.2017 10.0542V16.1686C31.2022 16.2682 31.1764 16.3661 31.1268 16.4524L30.3816 17.7578V18.9389C30.3816 19.0894 30.3218 19.2338 30.2153 19.3402C30.1089 19.4467 29.9645 19.5065 29.814 19.5065C29.6635 19.5065 29.5191 19.4467 29.4127 19.3402C29.3062 19.2338 29.2464 19.0894 29.2464 18.9389V17.6034C29.2461 17.5039 29.2719 17.406 29.3213 17.3196L30.0665 16.0142V10.6218H26.4199L24.6434 12.69V23.0685C24.6434 23.2191 24.5836 23.3634 24.4772 23.4699C24.3708 23.5763 24.2264 23.6361 24.0759 23.6361Z" fill="white"/>
<path d="M12.8381 28.3492C12.6875 28.3492 12.5432 28.2894 12.4367 28.1829C12.3303 28.0765 12.2705 27.9321 12.2705 27.7816V24.4006C12.2705 24.2501 12.3303 24.1057 12.4367 23.9993C12.5432 23.8928 12.6875 23.833 12.8381 23.833H14.24L16.0562 21.9873C16.1089 21.9335 16.1719 21.8907 16.2414 21.8614C16.3109 21.8322 16.3855 21.8171 16.4609 21.817H18.2135L19.2056 20.3873C19.2578 20.3121 19.3275 20.2505 19.4086 20.2081C19.4898 20.1656 19.58 20.1433 19.6716 20.1433H21.3573V18.9343C21.3574 18.843 21.3795 18.7531 21.4218 18.6722C21.4641 18.5913 21.5253 18.5217 21.6002 18.4695L23.7535 16.9666C23.8144 16.9208 23.884 16.8877 23.9579 16.8694C24.0319 16.8511 24.1088 16.8478 24.1841 16.8598C24.2593 16.8719 24.3314 16.8989 24.396 16.9394C24.4606 16.9799 24.5163 17.0329 24.5599 17.0954C24.6036 17.1579 24.6341 17.2286 24.6499 17.3031C24.6656 17.3777 24.6662 17.4547 24.6515 17.5295C24.6368 17.6043 24.6073 17.6753 24.5645 17.7385C24.5218 17.8016 24.4668 17.8554 24.4028 17.8968L22.4924 19.2306V20.7108C22.4924 20.8614 22.4326 21.0057 22.3262 21.1122C22.2197 21.2186 22.0754 21.2784 21.9248 21.2784H19.9667L18.9746 22.7081C18.9223 22.7834 18.8526 22.845 18.7714 22.8875C18.6901 22.93 18.5998 22.9522 18.5081 22.9522H16.6964L14.8802 24.7979C14.8274 24.8517 14.7645 24.8945 14.695 24.9237C14.6255 24.953 14.5509 24.9681 14.4755 24.9682H13.4056V27.7816C13.4056 27.9321 13.3458 28.0765 13.2394 28.1829C13.133 28.2894 12.9886 28.3492 12.8381 28.3492Z" fill="white"/>
<path d="M13.726 24.9681C13.5755 24.9681 13.4312 24.9083 13.3247 24.8019C13.2183 24.6954 13.1585 24.5511 13.1585 24.4006V21.4861L10.954 19.4928C10.8424 19.3918 10.7754 19.2506 10.7678 19.1002C10.7602 18.9498 10.8127 18.8025 10.9138 18.6908C11.0148 18.5791 11.156 18.5121 11.3064 18.5046C11.4568 18.497 11.604 18.5495 11.7157 18.6505L14.1063 20.8135C14.1652 20.8667 14.2123 20.9315 14.2445 21.004C14.2768 21.0764 14.2935 21.1548 14.2936 21.2341V24.4006C14.2936 24.5511 14.2338 24.6954 14.1274 24.8019C14.0209 24.9083 13.8766 24.9681 13.726 24.9681Z" fill="white"/>
<path d="M6.13983 30.3004C5.9893 30.3004 5.84494 30.2406 5.7385 30.1342C5.63206 30.0277 5.57227 29.8834 5.57227 29.7328V21.3601C5.5723 21.2096 5.63212 21.0652 5.73856 20.9588L7.1467 19.5512V13.9823C7.14667 13.8844 7.17196 13.7882 7.22011 13.7029C7.26825 13.6177 7.33762 13.5464 7.42148 13.4959C7.50533 13.4454 7.60082 13.4175 7.69866 13.4148C7.79651 13.4121 7.89339 13.4347 7.97989 13.4805L11.5976 15.3932C11.6887 15.4415 11.765 15.5138 11.8182 15.6022C11.8714 15.6906 11.8995 15.7918 11.8995 15.895V21.7318C11.8995 21.8824 11.8397 22.0267 11.7333 22.1332C11.6268 22.2396 11.4825 22.2994 11.3319 22.2994C11.1814 22.2994 11.0371 22.2396 10.9306 22.1332C10.8242 22.0267 10.7644 21.8824 10.7644 21.7318V16.2355L8.28183 14.9244V19.7862C8.2818 19.9367 8.22198 20.0811 8.11554 20.1875L6.7074 21.5951V29.7328C6.7074 29.8834 6.6476 30.0277 6.54116 30.1342C6.43472 30.2406 6.29036 30.3004 6.13983 30.3004Z" fill="white"/>
<path d="M27.2238 27.8229C27.0733 27.8229 26.9289 27.7631 26.8225 27.6567C26.716 27.5502 26.6562 27.4059 26.6562 27.2553V22.607C26.6562 22.4564 26.716 22.3121 26.8225 22.2056C26.9289 22.0992 27.0733 22.0394 27.2238 22.0394C27.3744 22.0394 27.5187 22.0992 27.6252 22.2056C27.7316 22.3121 27.7914 22.4564 27.7914 22.607V27.2553C27.7914 27.4059 27.7316 27.5502 27.6252 27.6567C27.5187 27.7631 27.3744 27.8229 27.2238 27.8229Z" fill="white"/>
<path d="M18.5075 25.8898C18.357 25.8898 18.2126 25.83 18.1062 25.7236C17.9997 25.6171 17.9399 25.4728 17.9399 25.3222V22.3851C17.9399 22.2345 17.9997 22.0902 18.1062 21.9837C18.2126 21.8773 18.357 21.8175 18.5075 21.8175C18.658 21.8175 18.8024 21.8773 18.9088 21.9837C19.0153 22.0902 19.0751 22.2345 19.0751 22.3851V25.3222C19.0751 25.4728 19.0153 25.6171 18.9088 25.7236C18.8024 25.83 18.658 25.8898 18.5075 25.8898Z" fill="white"/>
</svg>
