<svg width="21" height="21" viewBox="0 0 21 21" fill="none" xmlns="http://www.w3.org/2000/svg">
<path fill-rule="evenodd" clip-rule="evenodd" d="M4.25 0.083252C1.94881 0.083252 0.0833282 1.94873 0.0833282 4.24992V16.7499C0.0833282 19.0511 1.94881 20.9166 4.24999 20.9166H9.83233V12.8462H7.37499V9.68872H9.82697V7.37152C9.82697 4.67647 11.3248 3.20842 13.5063 3.20842C14.2418 3.20526 14.977 3.24698 15.7083 3.33338V6.14846H14.2052C13.0189 6.14846 12.7886 6.77229 12.7886 7.68343V9.69462H15.6235L15.2567 12.8521H12.7886V20.9166H16.75C19.0512 20.9166 20.9167 19.0511 20.9167 16.7499V4.24992C20.9167 1.94873 19.0512 0.083252 16.75 0.083252H4.25Z" fill="white"/>
</svg>
