<svg width="21" height="21" viewBox="0 0 21 21" fill="none" xmlns="http://www.w3.org/2000/svg">
<path d="M10.5 0.083252C13.3302 0.083252 13.6833 0.0936686 14.7937 0.145752C15.9031 0.197835 16.6583 0.371794 17.3229 0.630127C18.0104 0.89471 18.5896 1.25304 19.1687 1.83117C19.6984 2.35189 20.1083 2.98178 20.3698 3.677C20.6271 4.34054 20.8021 5.09679 20.8542 6.20617C20.9031 7.31659 20.9167 7.66971 20.9167 10.4999C20.9167 13.3301 20.9062 13.6833 20.8542 14.7937C20.8021 15.903 20.6271 16.6583 20.3698 17.3228C20.109 18.0184 19.6991 18.6485 19.1687 19.1687C18.6479 19.6982 18.018 20.108 17.3229 20.3697C16.6594 20.627 15.9031 20.802 14.7937 20.8541C13.6833 20.903 13.3302 20.9166 10.5 20.9166C7.66979 20.9166 7.31666 20.9062 6.20624 20.8541C5.09687 20.802 4.34166 20.627 3.67708 20.3697C2.98158 20.1087 2.35159 19.6988 1.83125 19.1687C1.30146 18.648 0.89159 18.0181 0.630203 17.3228C0.37187 16.6593 0.197912 15.903 0.145828 14.7937C0.0968699 13.6833 0.0833282 13.3301 0.0833282 10.4999C0.0833282 7.66971 0.0937449 7.31659 0.145828 6.20617C0.197912 5.09575 0.37187 4.34159 0.630203 3.677C0.890866 2.98136 1.30083 2.35129 1.83125 1.83117C2.35174 1.3012 2.98169 0.891303 3.67708 0.630127C4.34166 0.371794 5.09583 0.197835 6.20624 0.145752C7.31666 0.0967936 7.66979 0.083252 10.5 0.083252ZM10.5 5.29159C9.11866 5.29159 7.7939 5.84032 6.81715 6.81707C5.8404 7.79382 5.29166 9.11858 5.29166 10.4999C5.29166 11.8813 5.8404 13.206 6.81715 14.1828C7.7939 15.1595 9.11866 15.7083 10.5 15.7083C11.8813 15.7083 13.2061 15.1595 14.1828 14.1828C15.1596 13.206 15.7083 11.8813 15.7083 10.4999C15.7083 9.11858 15.1596 7.79382 14.1828 6.81707C13.2061 5.84032 11.8813 5.29159 10.5 5.29159ZM17.2708 5.03117C17.2708 4.68583 17.1336 4.35464 16.8895 4.11046C16.6453 3.86627 16.3141 3.72909 15.9687 3.72909C15.6234 3.72909 15.2922 3.86627 15.048 4.11046C14.8038 4.35464 14.6667 4.68583 14.6667 5.03117C14.6667 5.3765 14.8038 5.70769 15.048 5.95188C15.2922 6.19607 15.6234 6.33325 15.9687 6.33325C16.3141 6.33325 16.6453 6.19607 16.8895 5.95188C17.1336 5.70769 17.2708 5.3765 17.2708 5.03117ZM10.5 7.37492C11.3288 7.37492 12.1237 7.70416 12.7097 8.29021C13.2958 8.87626 13.625 9.67112 13.625 10.4999C13.625 11.3287 13.2958 12.1236 12.7097 12.7096C12.1237 13.2957 11.3288 13.6249 10.5 13.6249C9.67119 13.6249 8.87634 13.2957 8.29029 12.7096C7.70424 12.1236 7.375 11.3287 7.375 10.4999C7.375 9.67112 7.70424 8.87626 8.29029 8.29021C8.87634 7.70416 9.67119 7.37492 10.5 7.37492Z" fill="white"/>
</svg>
