<svg width="144" height="42" viewBox="0 0 144 42" fill="none" xmlns="http://www.w3.org/2000/svg">
<path d="M2.73828 16.5828C1.70382 15.7717 0.481734 16.0517 0 16.2931C0.278899 16.631 1.17138 17.9731 2.51009 20.6379C4.18348 23.969 6.54145 31.7173 6.92176 34.7586C7.22602 37.1917 7.30208 40.4069 7.30208 41.7104C7.83452 41.5655 9.0059 41.0876 9.43185 40.3345C9.85781 39.5814 9.76146 37.8966 9.66004 37.1483C10.2939 37.4621 11.9115 38.0897 13.3111 38.0897C14.7106 38.0897 16.2775 37.3173 16.8861 36.931C16.8353 37.5586 16.7644 39.0455 16.8861 39.9724C17.0078 40.8993 18.4073 41.5173 19.0919 41.7104C19.1426 38.9586 19.7004 32.0793 21.5259 26.5759C23.3514 21.0724 25.5826 17.4276 26.47 16.2931C26.2418 16.1724 25.5725 15.9745 24.7206 16.1483C23.6557 16.3655 22.8951 17.4517 21.9823 19.0448C21.2521 20.3193 19.3454 25.7069 18.4834 28.2414C15.3648 25.1035 8.85377 18.5524 7.75846 17.4517C6.38932 16.0759 6.38932 13.9759 6.61751 12.6724C6.8457 11.369 8.59515 7.74828 13.235 7.74828C17.8749 7.74828 19.5483 11.8759 19.5483 13.7586C19.5483 15.6414 18.9398 16.0035 18.7876 17.3069C18.6659 18.3497 19.244 19.2379 19.5483 19.5517C19.6497 19.6 20.0655 19.291 20.9174 17.669C21.9823 15.6414 22.1344 13.0345 21.5259 11.2241C20.9174 9.4138 19.3201 7.96552 17.7228 6.87931C16.4449 6.01035 14.9591 5.74483 14.376 5.72069L13.7675 5.14138L13.235 0L12.7786 5.14138L12.0941 5.72069C11.2574 5.84138 9.21887 6.34345 7.75846 7.38621C5.93294 8.68966 4.33561 10.9345 4.33561 13.9759C4.33561 16.409 5.70475 18.4655 6.38932 19.1897C9.55862 22.3759 16.095 29.009 16.8861 30.0517C17.6771 31.0945 17.3678 32.7552 17.1142 33.4552C16.7086 34.2276 15.3192 35.7869 13.0068 35.8448C10.6945 35.9028 9.4065 34.2759 9.05153 33.4552L7.83452 28.3862L12.3983 32.5862C12.6265 32.7552 13.235 32.9483 13.8435 32.369C14.452 31.7897 14.0971 31.1621 13.8435 30.9207L6.38932 23.8241C5.60333 21.7483 3.77274 17.3938 2.73828 16.5828Z" fill="#03B0CD"/>
<path d="M36.1691 31.7171C37.6737 30.175 40.5576 26.3624 41.8114 24.6489C42.304 26.8764 43.4235 31.6143 43.9609 32.7452C44.4983 33.8762 45.6178 33.4735 46.1104 33.1308C46.4238 32.7452 47.7762 30.8946 50.678 26.5766C54.3052 21.179 58.8728 10.7693 59.5445 9.48419C60.2162 8.19905 59.4102 7.68499 58.4698 8.07053C57.7175 8.37897 57.0816 9.56986 56.8577 10.1268C54.6635 14.1107 49.9794 22.5926 48.7972 24.6489C47.615 26.7051 45.976 28.2473 45.3043 28.7613C45.17 27.9045 44.8744 25.677 44.767 23.6207C44.6326 21.0505 45.17 19.6368 45.3043 19.1227C45.4387 18.6087 46.7821 16.681 45.7074 16.1669C44.8476 15.7557 44.1848 16.3383 43.9609 16.681C43.737 16.938 42.8056 18.1717 40.8711 21.0505C38.4529 24.6489 34.0196 30.0464 33.3479 30.8175C32.6762 31.5886 31.0641 33.5163 32.1389 34.0304C33.2136 34.5444 34.2883 33.6448 36.1691 31.7171Z" fill="white"/>
<path d="M51.484 28.2472L54.3052 23.6207C54.4395 23.278 54.9232 22.5926 55.783 22.5926C56.6427 22.5926 57.0368 23.6207 57.1264 24.1348C55.9173 25.5056 53.6604 28.2472 54.3052 28.2472C55.1113 28.2472 56.186 27.3477 56.8577 26.5766C57.5294 25.8055 58.4698 23.2352 59.8132 23.2352C60.8879 23.2352 60.8879 24.1776 60.7536 24.6489C59.9923 25.8483 58.6579 28.3244 59.4102 28.6328C60.3506 29.0183 61.1566 28.5043 63.0374 26.8336C64.9182 25.1629 65.4556 23.2352 65.4556 22.5926C65.4556 21.9501 65.1869 20.0223 66.2616 19.7653C67.1214 19.5597 67.4259 20.2794 67.4707 20.6649C67.6498 21.4788 68.3036 23.1324 69.4858 23.2352C70.9636 23.3637 72.1726 23.6207 72.5757 24.9059C72.8981 25.934 71.0979 25.934 70.1575 25.8055C69.9336 25.934 69.2977 26.4223 68.5454 27.3477C67.605 28.5043 66.5303 30.175 66.5303 31.9742C66.5303 33.7734 68.6798 34.4159 69.4858 34.93C70.2918 35.444 69.6201 36.6007 68.9484 36.7292C68.2767 36.8577 67.4707 36.2151 65.9929 34.93C64.5152 33.6448 64.5152 32.1027 64.5152 30.432C64.5152 29.0954 66.4855 26.4481 67.4707 25.2914L66.799 24.9059C66.5751 25.3343 65.8048 26.4995 64.5152 27.7332C62.9031 29.2754 61.0223 30.3035 59.1415 30.432C57.6369 30.5348 56.7234 29.7037 56.4547 29.2754C56.2756 29.361 55.7292 29.6095 54.9769 29.9179C54.0365 30.3035 52.4244 30.8175 51.7527 29.9179C51.2154 29.1983 51.3497 28.5043 51.484 28.2472Z" fill="white"/>
<path d="M81.5765 28.6328H76.8746C76.4268 29.104 75.4237 30.1236 74.9938 30.432C74.4564 30.8175 74.5908 31.9742 77.9493 31.9742C81.3079 31.9742 87.7562 30.432 90.9804 28.2472C94.2046 26.0625 88.1593 24.9059 83.8603 23.7493C79.5614 22.5926 77.1433 21.0505 78.3523 18.4802C79.5614 15.9099 84.3977 13.5966 88.831 12.5685C93.2642 11.5404 96.7571 12.44 96.6228 13.4681C96.4908 14.4779 96.3589 14.4959 90.1178 15.3485L89.7714 15.3958C83.1886 16.2954 81.5765 18.6087 81.8452 19.7653C82.1139 20.9219 90.0401 22.5926 93.5329 24.1348C97.0258 25.677 95.6824 27.9902 92.1895 30.175C88.6966 32.3597 79.6958 34.4159 75.3968 34.4159C71.0979 34.4159 71.5009 32.7452 71.5009 32.2312C71.5009 31.8199 72.7548 30.0893 73.3817 29.2754C73.2474 29.2754 72.9787 29.0697 72.9787 28.2472C72.9787 27.4248 73.7847 26.9621 74.1878 26.8336C74.8147 26.7479 76.579 26.5766 78.621 26.5766C81.1735 26.5766 82.92 26.3195 83.0543 27.0906C83.1618 27.7075 82.1139 28.3758 81.5765 28.6328Z" fill="white"/>
<path d="M101.325 24.0063L99.847 22.4641C99.0409 23.021 97.2139 24.6232 96.3541 26.5766C95.2794 29.0183 96.2198 30.3035 97.6975 30.5605C98.8797 30.7661 100.519 29.8751 101.19 29.4039C101.414 29.7894 102.265 30.5605 103.877 30.5605C105.489 30.5605 106.609 29.9608 106.967 29.6609C107.191 29.9608 107.934 30.5605 109.117 30.5605C110.299 30.5605 111.49 29.7894 111.938 29.4039C112.341 29.7037 113.389 30.3035 114.356 30.3035C115.323 30.3035 116.729 29.5324 117.311 29.1468C117.311 29.7466 117.849 30.9718 119.998 31.0746C122.148 31.1774 123.491 29.8323 123.894 29.1468C124.073 29.6181 124.781 30.5605 126.178 30.5605C127.575 30.5605 128.462 29.9608 128.73 29.6609C128.82 29.9608 129.187 30.5605 129.939 30.5605C130.88 30.5605 131.417 30.175 132.223 28.6328C132.868 27.3991 134.194 26.3195 134.776 25.934C135 26.8764 135.555 28.9412 135.985 29.6609C136.522 30.5605 138.134 33.2593 141.762 33.3878C144.663 33.4906 144.135 32.7452 143.508 32.3597C142.657 32.0598 140.526 30.9975 138.806 29.1468C136.657 26.8336 136.657 23.2352 135.716 23.1067C134.964 23.0039 133.343 24.2633 132.626 24.9059C132.761 24.4347 133.029 23.3637 133.029 22.8497C133.029 22.2071 131.417 21.436 130.88 23.4922C130.343 25.5485 127.924 28.7613 126.581 28.7613C125.238 28.7613 124.969 26.0625 124.835 24.9059C124.7 23.7493 123.894 24.0063 123.357 24.3918C122.819 24.7774 123.357 25.1629 123.357 26.5766C123.357 27.9902 121.745 28.7613 121.207 28.7613C120.67 28.7613 119.864 28.2472 119.864 27.2191C119.864 26.191 121.342 24.6489 123.088 23.7493C124.835 22.8497 123.894 22.0786 122.148 22.4641C120.401 22.8497 118.923 24.3918 118.252 25.5485C117.58 26.7051 116.505 27.9902 115.028 28.2472C113.55 28.5043 113.415 27.4762 113.819 26.4481C114.141 25.6256 115.923 21.9929 116.774 20.2794C119.998 20.1509 127.065 19.9195 129.536 20.0223C132.626 20.1509 132.626 19.7653 133.029 18.9942C133.352 18.3774 132.447 18.1375 131.955 18.0946L118.252 17.8376C118.879 16.8523 120.374 14.5991 121.342 13.4681C122.551 12.0545 122.013 11.2834 120.401 11.2834C119.112 11.2834 118.162 12.7399 117.849 13.4681C116.416 16.1669 113.281 22.0786 112.206 24.1348C111.132 26.191 111.132 27.5618 111.266 27.9902C110.908 28.2044 110.03 28.6328 109.385 28.6328C108.579 28.6328 108.042 27.8617 108.579 26.3195C109.117 24.7774 111.669 19.7653 113.953 16.5525C116.237 13.3396 117.311 11.6689 115.431 11.2834C113.926 10.975 113.012 12.0116 112.744 12.5685C111.714 14.5391 109.251 19.277 107.639 22.4641C106.027 25.6513 106.071 27.6475 106.295 28.2472C105.489 28.5471 103.877 28.9669 103.877 28.2472C103.877 27.3477 104.683 25.8055 105.489 24.9059C106.295 24.0063 105.489 23.3637 104.28 23.1067C103.313 22.9011 102.892 23.4494 102.802 23.7493C102.802 24.2633 102.48 25.6513 101.19 27.0906C99.5783 28.8898 99.0409 27.9902 99.3096 27.0906C99.5246 26.3709 100.743 24.7345 101.325 24.0063Z" fill="white"/>
<path d="M68.2318 7.95118L64.5778 13.6427H63.5268L62.172 7.95118H63.2723L64.2987 12.3255L67.1233 7.95118H68.2318Z" fill="white"/>
<path d="M68.8465 7.95118H69.9139L68.7644 13.6427H67.697L68.8465 7.95118Z" fill="white"/>
<path d="M72.1994 13.724C71.756 13.724 71.3317 13.6616 70.9267 13.537C70.5216 13.4123 70.2041 13.2524 69.9742 13.0572L70.4258 12.2279C70.6666 12.4176 70.9513 12.5694 71.2797 12.6832C71.6137 12.7916 71.953 12.8458 72.2979 12.8458C72.7194 12.8458 73.0533 12.7754 73.2997 12.6344C73.5515 12.4881 73.6774 12.2902 73.6774 12.0409C73.6774 11.9 73.6254 11.7834 73.5214 11.6913C73.4228 11.5937 73.2969 11.5151 73.1437 11.4555C72.9959 11.3959 72.7878 11.3281 72.5196 11.2522C72.1474 11.1438 71.8463 11.0408 71.6164 10.9433C71.3865 10.8403 71.1894 10.6885 71.0252 10.488C70.861 10.2874 70.7789 10.0272 70.7789 9.70741C70.7789 9.33881 70.8829 9.0163 71.0909 8.73986C71.3044 8.46341 71.6 8.2493 71.9777 8.09753C72.3554 7.94576 72.7906 7.86987 73.2832 7.86987C73.6555 7.86987 74.0086 7.91324 74.3425 7.99996C74.6764 8.08127 74.9638 8.19781 75.2046 8.34958L74.7859 9.18704C74.5724 9.04611 74.3315 8.9377 74.0633 8.86182C73.7951 8.78593 73.5159 8.74799 73.2258 8.74799C72.7988 8.74799 72.4594 8.82658 72.2076 8.98378C71.9613 9.13555 71.8381 9.33881 71.8381 9.59358C71.8381 9.73993 71.8901 9.86189 71.9941 9.95946C72.0981 10.057 72.224 10.1356 72.3718 10.1952C72.5196 10.2495 72.7358 10.3199 73.0205 10.4066C73.3818 10.5096 73.6774 10.6099 73.9073 10.7075C74.1372 10.805 74.3315 10.9487 74.4903 11.1384C74.6545 11.3281 74.7366 11.5748 74.7366 11.8783C74.7366 12.2523 74.6299 12.5775 74.4164 12.854C74.2084 13.1304 73.91 13.3445 73.5214 13.4963C73.1382 13.6481 72.6975 13.724 72.1994 13.724Z" fill="white"/>
<path d="M76.6326 7.95118H77.7L76.5505 13.6427H75.483L76.6326 7.95118Z" fill="white"/>
<path d="M80.24 8.84555H78.335L78.5157 7.95118H83.3931L83.2042 8.84555H81.2992L80.3385 13.6427H79.2711L80.24 8.84555Z" fill="white"/>
</svg>
