<svg width="872" height="226" viewBox="0 0 872 226" fill="none" xmlns="http://www.w3.org/2000/svg">
<g filter="url(#filter0_f_1_13569)">
<path d="M35.955 185.241C47.5929 173.354 69.8989 143.965 79.5972 130.756C83.4072 147.927 92.0664 184.449 96.2228 193.166C100.379 201.884 109.038 198.78 112.848 196.138C115.273 193.166 125.733 178.901 148.178 145.616C176.233 104.009 211.563 23.7684 216.758 13.8622C221.954 3.95586 215.719 -0.00666022 208.445 2.96523C202.627 5.34274 197.708 14.5226 195.976 18.8153C179.004 49.5248 142.774 114.906 133.63 130.756C124.486 146.607 111.809 158.494 106.614 162.457C105.575 155.852 103.289 138.681 102.457 122.831C101.418 103.019 105.575 92.1219 106.614 88.1594C107.653 84.1968 118.044 69.3374 109.731 65.3749C103.081 62.2049 97.9546 66.6957 96.2228 69.3374C94.4909 71.3187 87.2865 80.8287 72.3235 103.019C53.6197 130.756 19.3294 172.363 14.1339 178.307C8.93844 184.25 -3.53075 199.11 4.78204 203.072C13.0948 207.035 21.4076 200.1 35.955 185.241Z" fill="white" fill-opacity="0.08"/>
<path d="M154.412 158.494L176.233 122.831C177.273 120.19 181.013 114.906 187.663 114.906C194.314 114.906 197.362 122.831 198.054 126.794C188.703 137.361 171.246 158.494 176.233 158.494C182.468 158.494 190.781 151.56 195.976 145.616C201.172 139.672 208.445 119.86 218.836 119.86C227.149 119.86 227.149 127.124 226.11 130.756C220.222 140.002 209.9 159.088 215.719 161.466C222.993 164.438 229.227 160.475 243.775 147.597C258.322 134.719 262.479 119.86 262.479 114.906C262.479 109.953 260.4 95.0938 268.713 93.1125C275.363 91.5275 277.719 97.075 278.065 100.047C279.451 106.321 284.508 119.067 293.652 119.86C305.082 120.85 314.434 122.831 317.551 132.738C320.045 140.663 306.121 140.663 298.847 139.672C297.115 140.663 292.197 144.427 286.378 151.56C279.104 160.475 270.791 173.354 270.791 187.222C270.791 201.091 287.417 206.044 293.652 210.007C299.886 213.969 294.691 222.885 289.495 223.876C284.3 224.866 278.065 219.913 266.635 210.007C255.205 200.1 255.205 188.213 255.205 175.335C255.205 165.032 270.445 144.625 278.065 135.71L272.87 132.738C271.138 136.04 265.18 145.021 255.205 154.532C242.736 166.419 228.188 174.344 213.641 175.335C202.003 176.127 194.937 169.721 192.859 166.419C191.474 167.08 187.248 168.995 181.429 171.372C174.155 174.344 161.686 178.307 156.491 171.372C152.334 165.825 153.373 160.475 154.412 158.494Z" fill="white" fill-opacity="0.08"/>
<path d="M387.171 161.466H350.802C347.338 165.098 339.58 172.957 336.255 175.335C332.098 178.307 333.137 187.222 359.115 187.222C385.092 187.222 434.969 175.335 459.907 158.494C484.846 141.653 438.086 132.738 404.835 123.822C371.584 114.906 352.88 103.019 362.232 83.2062C371.584 63.3936 408.992 45.5623 443.282 37.6373C477.572 29.7122 504.589 36.6466 503.55 44.5717C502.529 52.3552 501.509 52.4942 453.235 59.0663L450.556 59.4311C399.64 66.3655 387.171 84.1968 389.249 93.1125C391.327 102.028 452.634 114.906 479.65 126.794C506.667 138.681 496.276 156.513 469.259 173.354C442.243 190.194 372.623 206.044 339.372 206.044C306.121 206.044 309.238 193.166 309.238 189.204C309.238 186.034 318.936 172.693 323.785 166.419C322.746 166.419 320.668 164.834 320.668 158.494C320.668 152.154 326.903 148.588 330.02 147.597C334.869 146.937 348.516 145.616 364.31 145.616C384.053 145.616 397.561 143.635 398.601 149.578C399.432 154.333 391.327 159.485 387.171 161.466Z" fill="white" fill-opacity="0.08"/>
<path d="M539.918 125.803L528.488 113.916C522.253 118.208 508.122 130.558 501.471 145.616C493.159 164.438 500.432 174.344 511.862 176.325C521.006 177.91 533.683 171.042 538.879 167.41C540.611 170.382 547.192 176.325 559.661 176.325C572.13 176.325 580.789 171.702 583.56 169.391C585.292 171.702 591.042 176.325 600.186 176.325C609.33 176.325 618.543 170.382 622.007 167.41C625.124 169.721 633.229 174.344 640.711 174.344C648.192 174.344 659.068 168.4 663.571 165.428C663.571 170.051 667.727 179.495 684.353 180.288C700.978 181.08 711.369 170.712 714.487 165.428C715.872 169.061 721.345 176.325 732.151 176.325C742.958 176.325 749.816 171.702 751.894 169.391C752.587 171.702 755.427 176.325 761.246 176.325C768.52 176.325 772.676 173.354 778.911 161.466C783.899 151.956 794.151 143.635 798.654 140.663C800.386 147.927 804.681 163.843 808.006 169.391C812.162 176.325 824.631 197.129 852.687 198.119C875.131 198.912 871.044 193.166 866.195 190.194C859.614 187.883 843.127 179.694 829.827 165.428C813.201 147.597 813.201 119.86 805.927 118.869C800.108 118.076 787.57 127.785 782.028 132.738C783.067 129.105 785.146 120.85 785.146 116.888C785.146 111.934 772.676 105.991 768.52 121.841C764.363 137.691 745.66 162.457 735.269 162.457C724.878 162.457 722.799 141.653 721.76 132.738C720.721 123.822 714.487 125.803 710.33 128.775C706.174 131.747 710.33 134.719 710.33 145.616C710.33 156.513 697.861 162.457 693.705 162.457C689.548 162.457 683.314 158.494 683.314 150.569C683.314 142.644 694.744 130.756 708.252 123.822C721.76 116.888 714.487 110.944 700.978 113.916C687.47 116.888 676.04 128.775 670.845 137.691C665.649 146.607 657.336 156.513 645.906 158.494C634.476 160.475 633.437 152.55 636.554 144.625C639.048 138.285 652.833 110.283 659.414 97.075C684.353 96.0844 739.009 94.3013 758.129 95.0938C782.028 96.0844 782.028 93.1125 785.146 87.1687C787.639 82.4137 780.643 80.5645 776.833 80.2343L670.845 78.2531C675.694 70.6582 687.262 53.2892 694.744 44.5717C704.096 33.6747 699.939 27.731 687.47 27.731C677.495 27.731 670.152 38.9581 667.727 44.5717C656.644 65.3749 632.398 110.944 624.085 126.794C615.772 142.644 615.772 153.211 616.811 156.513C614.04 158.164 607.252 161.466 602.264 161.466C596.029 161.466 591.873 155.522 596.029 143.635C600.186 131.747 619.929 93.1125 637.593 68.3468C655.258 43.581 663.571 30.7029 649.023 27.731C637.386 25.3535 630.32 33.3445 628.242 37.6373C620.275 52.8269 601.225 89.3481 588.756 113.916C576.287 138.483 576.633 153.871 578.365 158.494C572.13 160.806 559.661 164.042 559.661 158.494C559.661 151.56 565.896 139.672 572.13 132.738C578.365 125.803 572.13 120.85 562.778 118.869C555.297 117.284 552.041 121.511 551.348 123.822C551.348 127.785 548.854 138.483 538.879 149.578C526.41 163.447 522.253 156.513 524.332 149.578C525.994 144.031 535.415 131.417 539.918 125.803Z" fill="white" fill-opacity="0.08"/>
</g>
<path d="M186.202 158.557C193.469 151.061 207.398 132.527 213.454 124.198C215.833 135.026 221.24 158.058 223.835 163.555C226.43 169.053 231.837 167.095 234.216 165.429C235.73 163.555 242.262 154.559 256.277 133.569C273.796 107.33 295.856 56.7278 299.1 50.4806C302.344 44.2334 298.451 41.7345 293.909 43.6087C290.276 45.108 287.205 50.8971 286.123 53.6042C275.526 72.9706 252.903 114.202 247.193 124.198C241.483 134.193 233.568 141.69 230.323 144.189C229.674 140.024 228.247 129.196 227.728 119.2C227.079 106.706 229.674 99.8336 230.323 97.3347C230.972 94.8358 237.461 85.465 232.27 82.9661C228.117 80.967 224.916 83.7991 223.835 85.465C222.754 86.7145 218.255 92.7118 208.912 106.706C197.233 124.198 175.821 150.436 172.577 154.184C169.333 157.933 161.546 167.304 166.737 169.802C171.928 172.301 177.119 167.928 186.202 158.557Z" fill="white"/>
<path d="M260.17 141.69L273.796 119.2C274.444 117.534 276.78 114.202 280.933 114.202C285.085 114.202 286.989 119.2 287.421 121.699C281.582 128.363 270.681 141.69 273.796 141.69C277.689 141.69 282.879 137.317 286.123 133.569C289.368 129.82 293.91 117.326 300.398 117.326C305.589 117.326 305.589 121.907 304.94 124.198C301.263 130.028 294.818 142.065 298.451 143.564C302.993 145.438 306.886 142.939 315.97 134.818C325.054 126.697 327.649 117.326 327.649 114.202C327.649 111.079 326.351 101.708 331.542 100.458C335.695 99.4588 337.165 102.957 337.382 104.831C338.247 108.788 341.404 116.826 347.114 117.326C354.251 117.951 360.091 119.2 362.038 125.447C363.595 130.445 354.9 130.445 350.358 129.82C349.277 130.445 346.206 132.819 342.572 137.317C338.031 142.939 332.84 151.061 332.84 159.807C332.84 168.553 343.221 171.677 347.114 174.175C351.007 176.674 347.763 182.297 344.519 182.922C341.275 183.546 337.382 180.423 330.244 174.175C323.107 167.928 323.107 160.432 323.107 152.31C323.107 145.813 332.624 132.944 337.382 127.321L334.137 125.447C333.056 127.53 329.336 133.194 323.107 139.191C315.321 146.688 306.237 151.685 297.154 152.31C289.887 152.81 285.475 148.77 284.177 146.688C283.312 147.104 280.673 148.312 277.04 149.811C272.498 151.685 264.712 154.184 261.468 149.811C258.872 146.313 259.521 142.939 260.17 141.69Z" fill="white"/>
<path d="M405.51 143.564H382.8C380.638 145.855 375.793 150.811 373.717 152.31C371.121 154.184 371.77 159.807 387.991 159.807C404.212 159.807 435.356 152.31 450.928 141.69C466.5 131.07 437.303 125.447 416.54 119.825C395.777 114.202 384.098 106.706 389.938 94.2111C395.777 81.7167 419.135 70.4717 440.547 65.474C461.959 60.4762 478.828 64.8492 478.18 69.847C477.542 74.7556 476.905 74.8432 446.762 78.9878L445.089 79.2178C413.296 83.5909 405.51 94.8358 406.807 100.458C408.105 106.081 446.387 114.202 463.256 121.699C480.126 129.196 473.638 140.44 456.768 151.061C439.898 161.681 396.426 171.677 375.663 171.677C354.9 171.677 356.847 163.555 356.847 161.056C356.847 159.057 362.903 150.644 365.931 146.688C365.282 146.688 363.984 145.688 363.984 141.69C363.984 137.692 367.877 135.443 369.824 134.818C372.852 134.402 381.373 133.569 391.235 133.569C403.563 133.569 411.998 132.319 412.647 136.067C413.166 139.066 408.105 142.315 405.51 143.564Z" fill="white"/>
<path d="M500.889 121.074L493.752 113.577C489.859 116.285 481.034 124.073 476.882 133.569C471.691 145.438 476.233 151.685 483.37 152.935C489.08 153.934 496.996 149.603 500.24 147.312C501.321 149.187 505.431 152.935 513.217 152.935C521.003 152.935 526.41 150.02 528.14 148.562C529.222 150.02 532.812 152.935 538.522 152.935C544.231 152.935 549.984 149.187 552.147 147.312C554.094 148.77 559.155 151.685 563.826 151.685C568.498 151.685 575.289 147.937 578.101 146.063C578.101 148.978 580.696 154.934 591.077 155.434C601.459 155.934 607.947 149.395 609.894 146.063C610.759 148.354 614.176 152.935 620.924 152.935C627.672 152.935 631.954 150.02 633.252 148.562C633.685 150.02 635.458 152.935 639.091 152.935C643.633 152.935 646.229 151.061 650.122 143.564C653.236 137.567 659.638 132.319 662.45 130.445C663.531 135.026 666.213 145.063 668.289 148.562C670.885 152.935 678.671 166.054 696.189 166.679C710.204 167.179 707.652 163.555 704.624 161.681C700.515 160.223 690.22 155.059 681.915 146.063C671.533 134.818 671.533 117.326 666.992 116.701C663.358 116.201 655.529 122.324 652.068 125.447C652.717 123.157 654.015 117.951 654.015 115.452C654.015 112.328 646.229 108.58 643.633 118.575C641.038 128.571 629.359 144.189 622.871 144.189C616.382 144.189 615.084 131.07 614.436 125.447C613.787 119.825 609.894 121.074 607.298 122.948C604.703 124.822 607.298 126.697 607.298 133.569C607.298 140.441 599.512 144.189 596.917 144.189C594.322 144.189 590.429 141.69 590.429 136.692C590.429 131.694 597.566 124.198 606.001 119.825C614.436 115.452 609.894 111.703 601.459 113.577C593.024 115.452 585.887 122.948 582.643 128.571C579.398 134.193 574.208 140.44 567.07 141.69C559.933 142.939 559.284 137.942 561.231 132.944C562.788 128.946 571.396 111.287 575.505 102.957C591.077 102.333 625.206 101.208 637.145 101.708C652.068 102.333 652.068 100.458 654.015 96.71C655.572 93.7114 651.203 92.5452 648.824 92.337L582.643 91.0875C585.67 86.298 592.894 75.3445 597.566 69.847C603.405 62.9751 600.81 59.2267 593.024 59.2267C586.795 59.2267 582.21 66.3069 580.696 69.847C573.775 82.9661 558.636 111.703 553.445 121.699C548.254 131.694 548.254 138.358 548.903 140.441C547.173 141.482 542.934 143.564 539.819 143.564C535.926 143.564 533.331 139.816 535.926 132.319C538.522 124.822 550.849 100.458 561.88 84.8403C572.91 69.2223 578.101 61.1009 569.017 59.2267C561.75 57.7274 557.338 62.7668 556.04 65.474C551.066 75.053 539.17 98.0844 531.384 113.577C523.598 129.071 523.815 138.775 524.896 141.69C521.003 143.148 513.217 145.188 513.217 141.69C513.217 137.317 517.11 129.82 521.003 125.447C524.896 121.074 521.003 117.951 515.163 116.701C510.492 115.702 508.459 118.367 508.026 119.825C508.026 122.324 506.469 129.071 500.24 136.067C492.454 144.814 489.859 140.441 491.156 136.067C492.194 132.569 498.077 124.614 500.889 121.074Z" fill="white"/>
<path d="M343.841 39.3889L326.45 66.6111H321.448L315 39.3889H320.237L325.122 60.3111L338.565 39.3889H343.841Z" fill="white"/>
<path d="M346.767 39.3889H351.847L346.376 66.6111H341.296L346.767 39.3889Z" fill="white"/>
<path d="M362.725 67C360.614 67 358.595 66.7019 356.667 66.1056C354.739 65.5093 353.228 64.7444 352.134 63.8111L354.283 59.8444C355.43 60.7519 356.784 61.4778 358.348 62.0222C359.937 62.5407 361.552 62.8 363.194 62.8C365.2 62.8 366.789 62.463 367.961 61.7889C369.16 61.0889 369.759 60.1426 369.759 58.95C369.759 58.2759 369.511 57.7185 369.016 57.2778C368.547 56.8111 367.948 56.4352 367.219 56.15C366.515 55.8648 365.525 55.5407 364.249 55.1778C362.477 54.6593 361.044 54.1667 359.95 53.7C358.856 53.2074 357.918 52.4815 357.136 51.5222C356.355 50.563 355.964 49.3185 355.964 47.7889C355.964 46.0259 356.459 44.4833 357.449 43.1611C358.465 41.8389 359.872 40.8148 361.669 40.0889C363.467 39.363 365.538 39 367.883 39C369.655 39 371.335 39.2074 372.924 39.6222C374.514 40.0111 375.881 40.5685 377.028 41.2944L375.035 45.3C374.019 44.6259 372.872 44.1074 371.596 43.7444C370.319 43.3815 368.99 43.2 367.61 43.2C365.577 43.2 363.962 43.5759 362.764 44.3278C361.591 45.0537 361.005 46.0259 361.005 47.2444C361.005 47.9444 361.253 48.5278 361.748 48.9944C362.243 49.4611 362.842 49.837 363.545 50.1222C364.249 50.3815 365.278 50.7185 366.633 51.1333C368.352 51.6259 369.759 52.1056 370.853 52.5722C371.947 53.0389 372.872 53.7259 373.628 54.6333C374.409 55.5407 374.8 56.7204 374.8 58.1722C374.8 59.9611 374.292 61.5167 373.276 62.8389C372.286 64.1611 370.866 65.1852 369.016 65.9111C367.193 66.637 365.095 67 362.725 67Z" fill="white"/>
<path d="M383.824 39.3889H388.904L383.433 66.6111H378.353L383.824 39.3889Z" fill="white"/>
<path d="M400.993 43.6667H391.927L392.786 39.3889H416L415.101 43.6667H406.035L401.462 66.6111H396.382L400.993 43.6667Z" fill="white"/>
<defs>
<filter id="filter0_f_1_13569" x="0" y="0" width="872" height="226" filterUnits="userSpaceOnUse" color-interpolation-filters="sRGB">
<feFlood flood-opacity="0" result="BackgroundImageFix"/>
<feBlend mode="normal" in="SourceGraphic" in2="BackgroundImageFix" result="shape"/>
<feGaussianBlur stdDeviation="1" result="effect1_foregroundBlur_1_13569"/>
</filter>
</defs>
</svg>
