<svg width="30" height="30" viewBox="0 0 30 30" fill="none" xmlns="http://www.w3.org/2000/svg">
<g clip-path="url(#clip0_1_13617)">
<path d="M9.57006 23.3347C7.84029 23.3347 6.43811 24.737 6.43811 26.4667C6.43811 28.1964 7.84036 29.5986 9.57006 29.5986C11.2998 29.5986 12.702 28.1964 12.702 26.4667C12.7021 24.737 11.2998 23.3347 9.57006 23.3347ZM9.57006 28.2067C8.60909 28.2067 7.8301 27.4277 7.8301 26.4667C7.8301 25.5058 8.60909 24.7268 9.57006 24.7268C10.531 24.7268 11.31 25.5058 11.31 26.4667C11.3101 27.4277 10.531 28.2067 9.57006 28.2067Z" fill="white"/>
<path d="M22.7938 23.3347C21.064 23.3347 19.6618 24.737 19.6618 26.4667C19.6618 28.1964 21.0641 29.5986 22.7938 29.5986C24.5234 29.5986 25.9257 28.1964 25.9257 26.4667C25.9257 24.737 24.5235 23.3347 22.7938 23.3347ZM22.7938 28.2067C21.8328 28.2067 21.0538 27.4277 21.0538 26.4667C21.0538 25.5058 21.8328 24.7268 22.7938 24.7268C23.7547 24.7268 24.5337 25.5058 24.5337 26.4667C24.5338 27.4277 23.7547 28.2067 22.7938 28.2067Z" fill="white"/>
<path d="M29.8581 5.06483C29.7132 4.9065 29.5149 4.80738 29.3014 4.7864L6.64676 4.47321L6.02037 2.5592C5.57909 1.27971 4.38093 0.415932 3.02757 0.401611H0.695996C0.311596 0.401611 0 0.713207 0 1.09761C0 1.48201 0.311596 1.7936 0.695996 1.7936H3.02757C3.78431 1.81032 4.45067 2.29623 4.69799 3.01161L9.11755 16.3399L8.76959 17.1403C8.38146 18.1411 8.49802 19.2676 9.08278 20.1678C9.66195 21.052 10.6363 21.5977 11.6928 21.6294H25.2299C25.6143 21.6294 25.9259 21.3178 25.9259 20.9334C25.9259 20.549 25.6143 20.2374 25.2299 20.2374H11.6927C11.0961 20.2225 10.5469 19.9087 10.2311 19.4022C9.91886 18.902 9.85471 18.2857 10.0571 17.7318L10.3356 17.1054L24.9862 15.5742C26.5955 15.397 27.9193 14.2265 28.2922 12.651L29.9627 5.65631C30.0379 5.45489 29.998 5.22835 29.8581 5.06483ZM26.935 12.3379C26.7091 13.3521 25.848 14.1002 24.8123 14.1823L10.3356 15.6787L7.09917 5.8652L28.4314 6.17839L26.935 12.3379Z" fill="white"/>
</g>
<defs>
<clipPath id="clip0_1_13617">
<rect width="30" height="30" fill="white"/>
</clipPath>
</defs>
</svg>
