<svg width="25" height="19" viewBox="0 0 25 19" fill="none" xmlns="http://www.w3.org/2000/svg">
<path d="M24.8359 4.26514C24.8359 2.06787 23.2197 0.300293 21.2226 0.300293C18.5175 0.173828 15.7587 0.125 12.9394 0.125H12.0605C9.24799 0.125 6.48432 0.173828 3.77924 0.300781C1.78706 0.300781 0.170844 2.07812 0.170844 4.27539C0.0487741 6.01318 -0.00298371 7.75146 -5.40244e-05 9.48974C-0.00493684 11.228 0.0504017 12.9679 0.165962 14.7095C0.165962 16.9067 1.78217 18.689 3.77436 18.689C6.61616 18.8208 9.5312 18.8794 12.4951 18.8745C15.4638 18.8843 18.3707 18.8224 21.2158 18.689C23.2128 18.689 24.829 16.9067 24.829 14.7095C24.9462 12.9663 24.9999 11.228 24.9951 9.48486C25.0061 7.74658 24.9531 6.00667 24.8359 4.26514ZM10.1074 14.2798V4.68506L17.1874 9.47998L10.1074 14.2798Z" fill="white"/>
</svg>
